<?xml version="1.0" encoding="utf-8"?>
<!-- Generator: Adobe Illustrator 21.1.0, SVG Export Plug-In . SVG Version: 6.00 Build 0)  -->
<svg version="1.1" xmlns="http://www.w3.org/2000/svg" xmlns:xlink="http://www.w3.org/1999/xlink" x="0px" y="0px"
	 viewBox="0 0 3000 3000" style="enable-background:new 0 0 3000 3000;" xml:space="preserve">
<g id="fill">
	<g>
		<path style="fill:#FF4370;" d="M1014,2084.3c-16-13.7-36-23.8-57.6-28.5c-21.6-4.8-44.9-4-66.5,2.8c-21.6,6.8-41.2,19.4-56.2,35.7
			c-15.1,16.2-25.7,35.9-31.1,56.2c-2,7.6,1.2,15.9,8.3,20.1c8.5,4.9,19.5,2,24.4-6.5l0.4-0.6c8.4-14.5,18-27.2,29.5-37.4
			c11.5-10.2,24.7-17.7,38.8-22.2c14.2-4.3,29.3-5.7,44.6-3.8c15.2,1.8,30.4,6.8,45.6,13.8l0.7,0.3c7.1,3.3,15.8,1.7,21.2-4.6
			C1022.4,2102,1021.5,2090.7,1014,2084.3z"/>
		<path style="fill:#FF4370;" d="M988.5,2610l-27.7,20.5c-10.6,7.9-25.8,4.8-32.5-6.6l-18.6-31.4l-0.9-1.4c-1.3-2.1-3-4.1-5-5.8
			c-8.9-7.3-22.1-6.2-30.3,1.8l-62.3,60.6c-6.9,6.7-7.4,18-0.2,25.3c6.3,6.4,16.5,6.7,23.7,1.4l27.7-20.5
			c10.6-7.9,25.8-4.8,32.5,6.6l18.6,31.4l0.9,1.4c1.3,2.1,3,4.1,5,5.8c8.9,7.3,22.1,6.2,30.3-1.8l62.3-60.6c6.9-6.7,7.4-18,0.2-25.3
			C1005.9,2604.9,995.7,2604.6,988.5,2610z"/>
		<path style="fill:#FF4370;" d="M1333.8,1290.7c-6.9-5.7-17.1-4.9-23.7,1.2l-27.8,25.6c-8.4,7.8-21.7,6.6-28.5-2.6l-23.9-31.9
			l-1-1.3c-1.5-2-3.4-3.8-5.6-5.2c-9.6-6.3-22.6-3.8-30,5.1l-55.3,67c-6.1,7.4-5.4,18.7,2.6,25.2c6.9,5.7,17.1,4.9,23.7-1.2
			l27.8-25.6c8.4-7.8,21.7-6.6,28.5,2.6l23.9,31.9l1,1.3c1.1,1.5,2.5,2.9,4,4.1c9.7,7.6,23.9,5.5,31.7-4l55.2-66.9
			C1342.4,1308.5,1341.7,1297.2,1333.8,1290.7z"/>
		<path style="fill:#FF4370;" d="M2011.2,2113.8c-4.6-7.4-14.1-10.6-22.4-7c-8.8,3.9-12.6,14.3-9.2,23.3l6.4,17.1
			c2.5,6.8-1.2,14.3-8.2,16.3l-20.4,6l-2.3,0.7c-2.4,0.7-4.7,1.9-6.8,3.5c-9.2,6.8-11.1,19.9-5.1,29.7l31.2,50.6
			c4.6,7.4,14.1,10.7,22.4,7c8.8-3.9,12.6-14.3,9.2-23.3l-6.4-17.1c-2.5-6.8,1.2-14.3,8.2-16.3l20.4-6l2.3-0.7
			c2.4-0.7,4.7-1.9,6.8-3.4c9.2-6.8,11.1-19.9,5.1-29.7L2011.2,2113.8z"/>
		<path style="fill:#FF4370;" d="M2407.3,1738l-13.4-8.7c-7.1-4.6-8.8-14.3-3.7-21.1l11.4-15.1l1.4-1.9c1.5-2,2.7-4.3,3.5-6.8
			c3.3-11-2.9-22.6-13.5-26.9l-55.2-22.1c-8.1-3.2-17.6-0.2-22.2,7.7c-4.7,8.3-1.6,19,6.4,24.2l13.4,8.7c7.1,4.6,8.8,14.3,3.7,21.1
			l-11.4,15.1l-1.4,1.9c-1.5,2-2.7,4.3-3.5,6.8c-3.3,11,2.9,22.6,13.5,26.9l55.2,22.1c8.1,3.2,17.6,0.2,22.2-7.7
			C2418.4,1753.9,2415.3,1743.3,2407.3,1738z"/>
		<path style="fill:#FF4370;" d="M1186.7,1824.1c6.8-7.2,6.6-18.5-0.6-25.4l-0.9-0.9c-7.7-7.4-14.1-14.9-18.7-23.1
			c-4.6-8.1-7.4-16.7-8.4-25.5c-0.9-8.8-0.1-17.6,2.3-26.5c2.3-9,6.4-17.8,11.6-27.3l0.8-1.4c3.2-5.9,3-13.3-1.2-19.1
			c-5.8-8.1-17.1-10-25.2-4.2c-12.3,8.8-22.4,21.6-28.8,36.4c-6.3,14.8-8.7,31.8-6.4,48.2c2.3,16.4,9,32,19,44.6
			c9.9,12.6,22.7,22.4,36.5,28.3C1173.4,1831.1,1181.4,1829.7,1186.7,1824.1z"/>
		<circle style="fill:#FF4370;" cx="1172.2" cy="2440.8" r="28.6"/>
		<circle style="fill:#FF4370;" cx="1429.1" cy="2682.6" r="28.6"/>
		<circle style="fill:#FF4370;" cx="1163.3" cy="682" r="28.6"/>
		<circle style="fill:#FF4370;" cx="500.5" cy="500.9" r="28.6"/>
		<path style="fill:#FF4370;" d="M1974.9,2564.3c-9.2-3.7-19.6,0.7-23.3,9.9l-0.3,0.8c-6.3,15.5-13.7,29.6-23.5,41.4
			c-9.6,11.9-21.3,21.5-34.4,28.5c-3.4,1.4-6.8,3-10.2,4.5c-3.6,1-7.1,2.5-10.7,3.4l-5.5,1.1c-1.9,0.3-3.7,0.9-5.6,1l-5.7,0.6
			c-1.9,0.2-3.8,0.6-5.7,0.5c-15.4,0.7-31.2-1.9-47.2-6.7l-0.7-0.2c-7.7-2.3-16.2,0.8-20.5,8c-5,8.5-2.2,19.4,6.3,24.5
			c18.1,10.7,39.4,17.4,61.4,18.6c2.7,0.3,5.5,0.2,8.3,0.1l8.3-0.2c2.8,0,5.5-0.6,8.3-1l8.3-1.3c2.8-0.4,5.4-1.3,8.2-2
			c2.7-0.8,5.4-1.5,8.1-2.3c5.3-2,10.4-4.3,15.6-6.5c20.3-9.9,37.8-25.4,50.1-43.9c12.3-18.5,19.7-39.7,21.4-60.7
			C1986.6,2574.7,1982.3,2567.3,1974.9,2564.3z"/>
		<path style="fill:#FF4370;" d="M1862.2,802.8c5.8-7,5-17.3-1.2-24l-50.6-54.4c-8.5-9.2-7.1-23.7,3-31.1l61.5-44.6l1-0.7
			c1.5-1.1,2.9-2.4,4.2-3.9c7.8-9.6,6.1-23.8-3.1-32l-93.8-83.6c-7.3-6.5-19-6-25.6,2c-5.8,7-5,17.3,1.2,24l50.6,54.4
			c8.5,9.2,7.1,23.7-3,31.1l-61.5,44.6l-1,0.7c-1.5,1.1-2.9,2.4-4.1,3.9c-7.9,9.6-6.2,23.8,3.1,32l93.8,83.6
			C1844,811.3,1855.6,810.8,1862.2,802.8z"/>
		<path style="fill:#FF4370;" d="M2259.1,696.6l-1.1-0.6c-9.3-5.2-17.4-10.9-23.8-17.8c-6.4-6.8-11.3-14.3-14.5-22.6
			c-3.1-8.3-4.5-17.1-4.4-26.3c0-9.3,1.8-18.8,4.4-29.3l0.4-1.5c1.6-6.5-0.4-13.6-5.9-18.2c-7.6-6.4-19-5.4-25.4,2.2
			c-9.7,11.6-16.3,26.5-18.8,42.4c-2.5,16-0.5,33,5.8,48.3c6.3,15.3,16.7,28.8,29.4,38.5c12.8,9.8,27.5,16.1,42.4,18.3
			c7.1,1.1,14.6-2.3,18.3-8.9C2270.8,712.4,2267.7,701.5,2259.1,696.6z"/>
	</g>
	<g>
		<path style="fill:#008CFF;" d="M2237.8,998.2l39.7-3l1.7-0.1c1.9-0.2,3.7-0.5,5.6-1.2c11.6-4.1,17.4-17.2,13.7-28.9l-26.7-82.5
			c-2.9-9.2-12.9-14.6-22.6-11.4c-8.5,2.8-13.3,11.8-11.7,20.6l6.7,37.1c2,11.3-6.2,21.9-17.6,22.8l-39.7,3l-1.7,0.1
			c-1.9,0.2-3.7,0.5-5.6,1.2c-11.6,4.1-17.5,17.2-13.7,28.9l26.7,82.5c2.9,9.2,12.9,14.6,22.6,11.4c8.5-2.8,13.3-11.8,11.7-20.6
			l-6.7-37.1C2218.1,1009.6,2226.3,999.1,2237.8,998.2z"/>
		<path style="fill:#008CFF;" d="M550.2,650.7c-4.9-5.3-12.8-7.3-19.9-4.4c-9.2,3.7-13.6,14.2-9.9,23.4l0.5,1.2
			c4,9.9,6.8,19.4,7.5,28.7c0.8,9.3-0.1,18.3-2.8,26.7c-2.8,8.4-7.1,16.1-13,23.3c-5.8,7.2-13.1,13.6-21.8,20.2l-1.3,1
			c-5.3,4-8.2,10.9-6.8,17.9c2,9.8,11.5,16.1,21.2,14.1c14.8-3,29.3-10.5,41.2-21.4c11.9-10.9,21-25.5,25.6-41.3
			c4.6-15.9,4.9-32.9,1-48.5C568,675.9,560.4,661.7,550.2,650.7z"/>
		<circle style="fill:#008CFF;" cx="1984.5" cy="1803.9" r="28.6"/>
		<circle style="fill:#008CFF;" cx="2017.5" cy="582" r="28.6"/>
		<circle style="fill:#008CFF;" cx="1144.2" cy="1512.8" r="28.6"/>
		<circle style="fill:#008CFF;" cx="828.6" cy="2321.4" r="28.6"/>
		<circle style="fill:#008CFF;" cx="2005.8" cy="2412.3" r="28.6"/>
		<path style="fill:#008CFF;" d="M2381,1298.6c-3.4-9.3-13.7-14-23-10.6c-19.8,7.3-38.3,19.8-52.9,36.5c-2,1.9-3.6,4.2-5.3,6.4
			l-4.9,6.8c-1.7,2.2-3,4.7-4.4,7.1l-4.1,7.3c-1.4,2.4-2.3,5.1-3.4,7.7l-3.2,7.8c-1.7,5.4-3.1,10.9-4.5,16.3
			c-4.5,22.2-3,45.4,4,66.4c6.8,21.1,18.8,39.9,34,54.5c5.7,5.5,14.6,6.7,21.7,2.5c8.5-5.1,11.2-16.1,6.1-24.5l-0.4-0.6
			c-8.6-14.3-15.1-28.9-18.4-43.9c-3.3-15-3.5-30.2-0.5-44.8c3.2-14.5,9.3-28.4,18.3-40.8c9-12.4,20.7-23.3,34.2-33.2l0.6-0.4
			C2381.1,1314.7,2383.9,1306.3,2381,1298.6z"/>
		<path style="fill:#008CFF;" d="M1281.5,504.9l0.6-0.5c13.2-10.3,26.9-18.4,41.4-23.6c14.4-5.2,29.5-7.2,44.3-6.1
			c14.8,1.3,29.3,5.7,42.8,13.1c13.5,7.4,25.7,17.7,37.1,29.9l0.5,0.6c5.3,5.8,14.1,7.5,21.4,3.7c8.8-4.6,12.1-15.4,7.6-24.1
			c-9.8-18.7-24.5-35.5-42.8-48c-18.3-12.5-40.1-20.5-62.7-22.4c-22.5-1.8-45.4,2.6-65.5,12c-20.1,9.4-37.3,23.6-49.9,40.5
			c-4.7,6.3-4.8,15.2,0.2,21.7C1262.5,509.6,1273.8,511,1281.5,504.9z"/>
		<path style="fill:#008CFF;" d="M1468,1059.6l-39.1,5.2c-10.5,1.4-19.8-6.6-20.1-17.1l-1.3-41.5l0-1.7c-0.1-1.9-0.4-3.8-0.9-5.6
			c-3.5-11.8-16.3-18.2-28.2-15l-83.7,22.9c-9.3,2.5-15.2,12.2-12.4,22.1c2.4,8.6,11.2,13.8,20.1,12.7l39.1-5.2
			c10.5-1.4,19.8,6.6,20.1,17.1l1.3,41.5l0,1.7c0.1,2.5,0.6,5,1.6,7.5c4.2,10.7,16.3,16.2,27.4,13.1l83.8-22.9
			c9.3-2.5,15.2-12.2,12.4-22.1C1485.7,1063.6,1476.9,1058.4,1468,1059.6z"/>
		<path style="fill:#008CFF;" d="M1469,2238.8c-9.5-0.6-17.6,6.7-18.9,16.1l-9.7,72.8c-1.7,12.9-14.3,21.3-26.9,18.1l-72.7-18.9
			l-1.2-0.3c-1.8-0.5-3.7-0.7-5.7-0.7c-12.4,0-22.3,10.4-22.8,22.7l-4.9,125.5c-0.3,9.4,6.8,17.8,16.6,18.4
			c9.5,0.6,17.6-6.7,18.9-16.1l9.7-72.8c1.7-12.9,14.3-21.3,26.9-18.1l72.7,18.9l1.2,0.3c1.8,0.5,3.7,0.7,5.7,0.7
			c12.4,0,22.3-10.4,22.8-22.8l4.9-125.5C1486,2247.8,1478.8,2239.5,1469,2238.8z"/>
		<path style="fill:#008CFF;" d="M1023.9,2309.1c-3.8-6.2-11.1-9.7-18.6-8.3c-9.7,1.8-16.2,11.2-14.4,20.9l0.2,1.3
			c1.9,10.5,2.7,20.4,1.6,29.7c-1.1,9.3-3.8,17.9-8.1,25.6c-4.4,7.6-10.2,14.4-17.4,20.2c-7.1,5.9-15.6,10.7-25.4,15.4l-1.4,0.7
			c-6,2.9-10.2,9-10.2,16.2c0,10,8,18.1,17.9,18.1c15.1,0.1,30.8-4.4,44.6-12.7c13.8-8.3,25.7-20.7,33.4-35.3
			c7.7-14.6,11.4-31.2,10.7-47.3C1036.3,2337.3,1031.6,2321.9,1023.9,2309.1z"/>
		<path style="fill:#008CFF;" d="M1262.9,2674.8l-1.2-0.5c-10-3.7-18.9-8.1-26.3-13.8c-7.4-5.7-13.4-12.4-17.8-20
			c-4.3-7.7-7.1-16.1-8.4-25.3c-1.4-9.2-1.2-18.9-0.2-29.7l0.1-1.6c0.6-6.7-2.5-13.4-8.7-17.1c-8.5-5.1-19.6-2.4-24.8,6.1
			c-7.8,13-12,28.7-12,44.8c0.1,16.1,4.6,32.7,13.2,46.8c8.6,14.1,21,25.8,35.1,33.4c14.1,7.6,29.7,11.6,44.8,11.5
			c7.2-0.1,14-4.5,16.7-11.7C1277,2688.6,1272.2,2678.3,1262.9,2674.8z"/>
	</g>
</g>
<g id="outline">
	<g>
		<path style="fill:#FFFFFF;" d="M2677.6,967.7c-0.1-2-0.1-4.1-0.5-5.9c-0.4-1.9-0.7-3.8-1.1-5.6c-0.4-1.9-1.1-3.4-1.7-5.2
			c-0.6-1.7-1.2-3.4-1.9-5l-2.2-4.5c-1.4-3.1-3.1-5.7-4.8-8.4c-0.8-1.3-1.6-2.7-2.5-3.9l-2.6-3.7c-3.5-5-7.2-9.4-10.9-13.9
			c-3.8-4.3-7.5-8.6-11.4-12.8c-7.7-8.3-15.5-16.3-23.4-24.1c-15.8-15.7-32-30.6-48.1-45.6l-24.3-22.3l-12.1-11l-5.3-5.1l-4.9-5.4
			c-6.2-7.3-11.3-15.4-14.8-23.7c-1-2.1-1.5-4.2-2.3-6.3l-0.8-3.1l-0.4-1.5l-0.2-1.5c-0.8-4.1-0.7-8.1-0.2-11.5
			c1.1-6.9,4.9-11.1,8.2-11.6c2-0.5,5.6-0.3,9.5,0.7c4,1,8.4,2.7,12.7,4.7c8.8,4.1,17.6,9.6,26.4,15.3c8.7,5.9,17.4,12.1,26,18.5
			c17.2,12.8,34.2,26.4,51.6,39.6l0,0c4.1,3.1,10.1,2.9,14-0.7c4.4-4.1,4.6-11,0.5-15.4c-15.2-16.2-31.4-31.3-48.6-45.7
			c-8.6-7.1-17.6-14.1-27-20.6c-9.4-6.5-19.3-12.6-30.3-17.9c-5.5-2.6-11.4-5-18.1-6.7c-6.6-1.6-14.2-2.8-23-1
			c-4.3,0.9-8.7,2.6-12.6,5.2c-3.9,2.5-7.1,5.6-9.6,8.8c-5.2,6.6-8.1,14.4-9.4,21.8c-1.2,7.4-1.1,14.5,0.1,21.2l0.4,2.5l0.6,2.4
			c0.4,1.6,0.7,3.3,1.2,4.9c1,3.1,1.9,6.3,3.2,9.2c4.9,12,11.7,22.6,19.6,32c2,2.3,4.1,4.6,6.2,6.8l6.5,6.4l12.1,11.1l24.1,22.2
			c16,14.9,31.9,29.8,47.2,45.1c7.6,7.6,15.1,15.3,22.3,23.1c3.6,3.9,7,7.9,10.4,11.8c3.2,4,6.6,8,9.3,12c5.7,8,10.2,16.3,11.2,22.7
			c0.3,3.2,0.4,5.9-0.8,9.2c-1,3.1-2.2,4.6-3.2,5.3c-0.6,0.4-1.2,0.8-2.3,1c-1.1,0.2-2.4,0.4-4.1,0.4c-3.3,0-7.5-0.9-11.8-2.2
			c-8.6-2.7-17.7-7.2-26.5-12.4c-8.9-5.2-17.6-11.1-26.1-17.3l-13-9.7l-6.7-5l-6.9-4.9c-9.2-6.6-18.6-12.9-28.7-18.8
			c-2.5-1.5-5.1-2.9-7.8-4.3l-4-2.1l-4.2-1.9c-5.5-2.6-11.7-4.8-18.7-6.4c-1.8-0.3-3.6-0.7-5.5-0.9c-2.1-0.1-4.1-0.2-6.2-0.2
			c-2.2,0.1-4.6,0.5-6.8,0.9c-2.4,0.7-4.8,1.4-7.1,2.5c-2.2,1.3-4.7,2.5-6.5,4.3c-0.9,0.8-1.9,1.7-2.8,2.6c-0.9,0.9-1.5,1.8-2.2,2.7
			c-0.7,0.9-1.5,1.9-2,2.8l-1.5,2.6c-0.9,1.7-1.9,3.4-2.6,5.4c-0.7,1.9-1.5,3.8-1.9,5.8c-0.4,2-0.8,4-1.1,6.1c-0.1,2-0.2,4-0.2,6
			c0,2,0.3,3.9,0.5,5.8c1.1,7.5,3.5,14.2,6.4,19.9c5.7,11.7,12.9,21.2,20.2,30.2c7.4,8.9,15.1,17.3,23,25.3c3.9,4,8,7.9,11.8,11.8
			c3.8,3.7,7.5,7.5,11,11.3c7.1,7.7,13.8,15.6,19.4,23.8c5.5,8.1,10.2,16.6,11.7,24.1c0.7,3.7,0.7,6.8,0,9.5
			c-0.7,2.8-2.3,5.2-4.2,6.9c-1.9,1.7-4.5,2.9-7.8,3.3c-3.3,0.5-7.3,0.1-11.5-0.9c-8.4-2.1-17.2-6.8-25.6-12.4l-0.5-0.3
			c-4.6-3-10.8-2.2-14.3,2.1c-3.8,4.6-3.1,11.5,1.5,15.3l6.9,5.7c2.5,1.7,4.9,3.5,7.5,5.2c2.7,1.6,5.2,3.3,8.2,4.6
			c1.5,0.7,2.8,1.4,4.4,2.1l4.6,1.8c6.3,2.1,13.3,3.5,21,3.1c7.6-0.4,15.8-3.1,22.5-8.2c6.7-5.1,11.5-12.2,14-19.8
			c2.5-7.8,2.6-16,1.4-23c-1.2-7.2-3.7-13.4-6.4-19.2l-2.1-4.3c-0.7-1.4-1.5-2.7-2.3-4c-1.5-2.7-3.2-5.2-4.9-7.7
			c-6.8-10-14.2-18.8-22-27.3c-3.9-4.2-7.8-8.3-11.8-12.3c-3.9-3.9-7.6-7.6-11.3-11.5c-7.5-7.6-14.6-15.5-21.1-23.5
			c-6.5-8-12.4-16.3-16.3-24.3c-2-4-3.2-7.9-3.7-11.2c-0.5-3.4-0.2-6,0.9-8.6c0.1-0.7,0.7-1.3,1-2l0.5-1c0.2-0.2,0.3-0.3,0.4-0.5
			c0.1-0.1,0.2-0.4,0.3-0.5c0.1,0,0.2-0.1,0.3-0.2c0.1-0.3,0.3-0.1,0.4-0.3c0.2-0.3,2.7-0.7,6.5,0.2c3.7,0.9,7.9,2.3,12.3,4.4
			l3.3,1.5l3.3,1.7c2.2,1.2,4.4,2.3,6.6,3.7c8.8,5.2,17.6,11.1,26.2,17.4l6.5,4.7l6.4,4.9l13.3,10.1c9.1,6.7,18.6,13.2,28.6,19.2
			c10.1,5.9,20.6,11.5,32.9,15.4c6.2,1.9,12.8,3.5,20.5,3.7c3.8,0.1,7.9-0.3,12.2-1.3c4.3-1,8.7-3,12.6-5.7c3.9-2.7,7.3-6.3,9.7-10
			c2.5-3.8,4.1-7.6,5.3-11.3c0.7-1.9,1-3.6,1.5-5.5c0.3-2,0.6-3.9,0.8-5.9C2677.9,971.7,2677.7,969.7,2677.6,967.7z"/>
		<path style="fill:#FFFFFF;" d="M2419.6,1223.7H1097.7c-28.3,0-51.4,23.1-51.4,51.4v589.5c0,28.3,23,51.4,51.4,51.4h1321.8
			c28.3,0,51.4-23.1,51.4-51.4v-589.5C2470.9,1246.8,2447.9,1223.7,2419.6,1223.7z M1800.7,1254c0.4-3.3,5.2-5.3,11.4-6.7h323.6
			c11.9,1.4,23.5,4.4,28,12.7c2.2,4,3.4,8.6,4.2,13.4c2.8,36.8,3.4,75.2,3.3,114.4c-1.9,18.7-5,36.8-15.5,50.9
			c-10.8,10.9-26.1,20.1-45.1,26.5c-31.2,10.6-72.8,13.5-108.4,1.2c-6.6-3.1-12.9-6.8-18.3-11.7c-11.2-10.2-15.5-23.9-18.4-38.1
			c-0.5-12.1-0.7-22.2-0.7-30.2c1-10.5,2-21,3-31.5c1.9-11.2,3.8-22.5,5.6-33.7c0.7-4.4-2-8.7-6.4-10c-4.7-1.3-9.6,1.4-11,6.2
			c-4.7,16.6-8.8,33.2-12.6,50c-0.9,2.2-2.1,4.2-3.6,6c-10.1,12-21.1-1.6-26.9-10.3c-0.7-1-1.5-1.7-2.3-2.1
			c-23-35.1-55.7-65.6-95.6-89.5C1807.9,1266.5,1799.8,1260.7,1800.7,1254z M2172,1489.2c6.5,85.7,34.6,168.2,82.5,241.1
			c14.7,22.3,17.1,45.3,7,64.9c-10.5,20.4-33,33.1-60,34c-24.9,0.8-89.6-8.4-152-111.5c-42.9-70.9-64.3-148.6-74.8-212.7
			c0.7-9.9,4-18.5,14.3-17.1c5.7,0.8,10.9,2.9,16.1,4.1c15.8,4.2,32.3,6.2,48.4,6.2c23.2,0,45.7-3.9,64.8-10.4
			c8-2.7,15.4-5.9,22.4-9.4c0.9,0,1.9-0.2,2.9-0.8c5.5-3.1,13.1-7.8,19.6-5.9C2171.1,1474,2171,1482.6,2172,1489.2z M1927.7,1391.5
			c-0.2-0.5-0.5-1-0.7-1.5c0.1,0,0.3,0.1,0.4,0.1C1927.4,1390.5,1927.5,1391,1927.7,1391.5z M1219.6,1878.4
			c-4.3,13.2-17.1,11.3-28.2,14h-93.7c-15.3,0-27.7-12.4-27.7-27.7v-589.5c0-15.3,12.4-27.7,27.7-27.7H1530c2.8,0.5,5.5,1.4,7.7,3.1
			c6.1,4.8,1.9,11.9-2.3,16.6c-0.9,1-1.8,2-2.7,3.1c-5.1,3.7-10.4,7.5-15.8,11.4l-9.9,7.1c-28.8,20.8-57.5,40.5-85.3,59.4
			c-104.9,71.7-195.5,133.6-211.4,208.3c-11.5,53.9-1.2,188,11.4,305.4C1221.7,1867.5,1221.3,1873.1,1219.6,1878.4z M1617.7,1679.8
			c-4.1,37.2-7.3,74.5-10.1,111.8c-2,24.9-3.5,49.7-4.9,74.6c-0.4,2.3-0.8,4.5-1.3,6.8c-0.9,4.4-1.8,9.1-4.6,12.6
			c-4.7,6-12.5,6-19.5,6.2c-0.9,0-1.6,0.2-2.4,0.5h-48.6c-2.5-0.4-5.1-0.6-7.8-0.8c-11.9-1-17-7.5-19.3-16.3
			c-0.9-16.4-1.9-32.8-3-49.3l-2.5-38.7l-2.8-38.7c-0.8-10.9-1.6-21.8-2.4-32.7c0.4-12.8-0.3-27.9,4.5-39.1
			c2.6-6,7.4-11.2,12.9-15.8l91.6-61.7c0.6-0.2,1.2-0.5,1.7-0.9c9-6.4,24.3-15.8,26.2,1.5c0.3,3,0.5,6,0.5,9.1
			C1623,1632.5,1620.2,1656.2,1617.7,1679.8z M1878.7,1841.9c-1.8,6-3.3,12.3-4.9,19.1c-6,25.1-28,30.6-49.6,31.4h-155.6
			c-7.8-0.8-15.7-1.3-23.5-3.9c-17-5.6-15.3-20.8-17.2-35c1.5-20,3-40,4.5-60c2.8-37.1,6.2-74.1,9.8-111.1
			c3.6-37,7.9-73.9,12.6-110.8c4.6-36.8,9.8-73.6,14.7-110.5c0.6-4.5-2.3-8.8-6.8-9.9c-4.8-1.1-9.6,1.8-10.7,6.6
			c-2.7,11.4-5.1,22.8-7.4,34.3c-3.1,13.3-4,27.1-10.4,39.3c-9,17.1-26.2,28.4-40.2,41.6l-83.8,56.5c-8.4,4.7-17.8,8.1-25.5-2.2
			c-2.6-3.4-3.8-8-4.7-12.4c-0.7-7-1.5-14.1-2.4-21.2c-0.5-4.4-4.4-7.9-8.9-7.8c-4.9,0.1-8.8,4.1-8.8,9c0.1,12.9,0.4,25.9,0.9,38.8
			l0.7,19.4l0.6,12.8c-0.4,2-0.4,4,0.3,6l0,0.6c1.2,25.9,2.9,51.7,4.4,77.5l2.3,38.7l2.6,38.7c0.4,6.5,0.9,12.9,1.3,19.3
			c-0.1,3.2-0.1,6.5-0.1,9.8c0.4,12-0.9,22-12.1,28.9c-7,4.4-15.5,5.9-23.8,6.8h-155.9c-7.1-0.9-13.9-2.2-19.6-4.8
			c-8.7-4-11.4-13.9-15.5-22.5c-11.2-103.4-23.9-250-12.5-303.7c14-65.5,100.9-124.9,201.6-193.7c27.9-19,56.8-38.8,85.8-59.8l9.8-7
			c6.6-4.8,13-9.4,19.2-13.9c12.2-6.9,22.8-16.2,35.2-22.9c18.5-10,40.8-11.9,61.4-13.3c19.9-1.3,40-0.8,59.6,2.1
			c122.2,30,208.6,114.5,218.1,214.4c-8,47.1-15,94.3-21.4,141.6c-6.5,48.9-11.8,98-16.7,147
			C1883.4,1784.5,1880.9,1813.2,1878.7,1841.9z M2447.3,1864.6c0,15.3-12.4,27.7-27.7,27.7h-465.1c-7.1-1.3-14.2-1.1-21.4-1.1
			c-10.9,0-22.8,0.4-29-10.9c-2.9-5.3-2.5-15.9-2.2-24.9c2.8-32.4,5.9-64.8,9.1-97.2c4.8-48.8,10.5-97.6,16.6-146.3
			c3.9-31.2,8.3-62.4,12.9-93.6c0.3-0.9,0.7-1.8,1.2-2.6c2.2-3.8,6.2-6.1,9.1-1.6c1.2,1.8,1.9,4,2.5,6.3
			c11.6,64.1,33.7,139.8,75.8,209.4c66.3,109.5,138.4,123,169.6,123c1.2,0,2.4,0,3.5-0.1c35.7-1.2,65.8-18.7,80.3-46.7
			c14.1-27.1,11-59.4-8.2-88.8c-53.9-82.2-81.6-177.2-80-274.7c0.8-52.1,1.3-103.2-1.5-152.2c1-12.3-0.8-26,8.6-34.9
			c4.3-4,9.4-6.5,14.9-8.1h203.2c15.3,0,27.7,12.4,27.7,27.7V1864.6z"/>
		<path style="fill:#FFFFFF;" d="M2387,2307.3c-2.8-23.5-22.8-41.8-47-41.8h-118.8c-26.1,0-47.4,21.3-47.4,47.4v118.8
			c0,24.3,18.3,44.3,41.8,47c2.8,23.5,22.8,41.8,47,41.8h118.8c26.1,0,47.4-21.3,47.4-47.4v-118.8
			C2428.8,2330.1,2410.5,2310.1,2387,2307.3z M2363.6,2318.7L2363.6,2318.7L2363.6,2318.7v112.9c0,13.1-10.6,23.7-23.7,23.7h-112.8
			c0,0-0.1,0-0.1,0s-0.1,0-0.1,0h-5.8c-13.1,0-23.7-10.6-23.7-23.7v-118.8c0-13.1,10.6-23.7,23.7-23.7h118.8
			c13.1,0,23.7,10.6,23.7,23.7V2318.7z"/>
		<path style="fill:#FFFFFF;" d="M2387,2020.9c-2.8-23.5-22.8-41.8-47-41.8h-118.8c-26.1,0-47.4,21.2-47.4,47.4v118.7
			c0,24.3,18.3,44.3,41.8,47c2.8,23.5,22.8,41.8,47,41.8h118.8c26.1,0,47.4-21.3,47.4-47.4V2068
			C2428.8,2043.7,2410.5,2023.7,2387,2020.9z M2363.6,2032.4L2363.6,2032.4L2363.6,2032.4v112.9c0,13.1-10.6,23.7-23.7,23.7h-112.8
			c0,0,0,0-0.1,0s0,0-0.1,0h-5.9c-13.1,0-23.7-10.6-23.7-23.7v-118.7c0-13.1,10.6-23.7,23.7-23.7h118.8c13.1,0,23.7,10.6,23.7,23.7
			V2032.4z M2387.3,2045.3v-0.3c0.1,0,0.2,0.1,0.3,0.1C2387.5,2045.2,2387.4,2045.2,2387.3,2045.3z"/>
		<path style="fill:#FFFFFF;" d="M2330.4,2049.9c2.5-3.1,2.7-7.7,0.2-11c-3-3.9-8.6-4.7-12.5-1.7c-8,6-15.6,12.5-23.1,19.1
			c-4.6,4-9,8.1-13.4,12.3c-4.3-4.3-8.6-8.5-13-12.7c-7.3-6.9-14.6-13.6-22.5-19.9c-3.1-2.5-7.7-2.7-11-0.2c-3.9,3-4.7,8.6-1.7,12.5
			c6,8,12.5,15.6,19.1,23.1c4,4.6,8.1,9,12.3,13.4c-4.3,4.3-8.5,8.6-12.7,13c-6.9,7.2-13.6,14.6-19.9,22.5c-2.5,3.1-2.7,7.7-0.2,11
			c3,3.9,8.6,4.7,12.6,1.7c8-6,15.6-12.5,23.1-19.1c4.5-4,9-8.1,13.4-12.3c4.3,4.3,8.6,8.5,13,12.7c7.3,6.9,14.6,13.6,22.5,19.9
			c3.1,2.5,7.7,2.7,11,0.2c3.9-3,4.7-8.6,1.7-12.6c-6-8-12.5-15.6-19.1-23.1c-4-4.5-8.1-9-12.3-13.4c4.3-4.3,8.5-8.6,12.7-13
			C2317.4,2065.1,2324.1,2057.7,2330.4,2049.9z"/>
		<path style="fill:#FFFFFF;" d="M2318.9,2409.3c-6.4-1.3-12.8-2-19.2-2.4c-6.4-0.4-12.8-0.6-19.2-0.5c-6.4,0.1-12.8,0.2-19.2,0.7
			c-6.4,0.4-12.8,1.1-19.1,2.2c-3.6,0.7-6.6,3.5-7.3,7.3c-0.9,4.9,2.4,9.6,7.3,10.5c6.4,1.2,12.8,1.8,19.1,2.2
			c6.4,0.5,12.8,0.7,19.2,0.7c6.4,0.1,12.8-0.1,19.2-0.5c6.4-0.4,12.8-1.1,19.2-2.4c3.4-0.7,6.3-3.4,7.1-7.1
			C2327,2415.1,2323.8,2410.3,2318.9,2409.3z"/>
		<path style="fill:#FFFFFF;" d="M2033.3,946.2c57.5,0,105.7-40.6,117.4-94.6c0.5-1,0.7-2,0.6-3c1.4-7.3,2.2-14.8,2.2-22.5
			c0-66.3-53.9-120.2-120.2-120.2s-120.2,53.9-120.2,120.2S1967.1,946.2,2033.3,946.2z M1988.9,740.4c10.4-2.5,22.8-5.9,32.5,0.6
			c4.9,3.3,7.6,8.3,9.3,13.7c2,10.5,1.2,23.2,0.4,37.1c-2,33.1-4.6,76.7,38.7,105.4c2.6,2.8,4.6,4.9,4.9,9.4
			c0.2,3.8-1.2,6.1-3.3,8.1c-11.7,5-24.5,7.8-38,7.8c-53.2,0-96.5-43.3-96.5-96.5C1936.9,788.8,1958,756.5,1988.9,740.4z"/>
		<path style="fill:#FFFFFF;" d="M2054,1971.1h-555.5c-0.1,0-0.1,0-0.2,0H771.6c-28.3,0-51.4,23.1-51.4,51.4v717.1
			c0,28.3,23,51.4,51.4,51.4H2054c28.3,0,51.4-23,51.4-51.4v-717.1C2105.4,1994.2,2082.3,1971.1,2054,1971.1z M1618.4,2034
			c1.5-9.6,4-19.1,10.4-26.4c7.8-9.1,19.4-10.6,30.6-11.1c7.5-0.4,14.9-0.5,22-1.7h144.4c18.8,1.2,33.8,6.6,39.3,28.3
			c0.4,1.6,0.7,3.1,1.1,4.7c-5.6,104.3-7.7,190.9-8.5,245.3c-0.7,5.5-1.5,11-2.2,16.5c-1.5,11-2.9,21.4-14.4,26.1
			c-5.5,2.3-11.9,3.1-17.9,4.2l-186.1-12.4c-2.3-0.8-4.5-1.7-6.6-2.9c-10.7-5.9-12.8-15.2-14-26.6c-0.9-8.3-1.6-16.6-2.3-24.9
			C1614.4,2202.4,1615.2,2124.9,1618.4,2034z M1601.5,2412.9c5.4-4.9,13.1-6.8,21.3-7.5c0.4,0,0.8,0.1,1.2,0.1
			c11.2,0.9,22.3,1.8,33.5,2.3c11.2,0.5,22.4,0.9,33.6,0.7c4.1-0.1,7.7-3,8.6-7.2c1-4.9-2.2-9.5-7-10.5c-11-2.2-22.1-3.8-33.2-5.2
			c-6.1-0.8-12.2-1.5-18.3-2.1c-2.3-0.7-4.7-1.4-7-2.2c-5.2-1.6-13.1-2.6-17.6-5.7c-3.8-2.6-5.4-8.3-6-14.8c0.1-0.8,0.3-1.7,0.4-2.5
			c3.3-13.4,9.5-24.7,26.4-25.8c9-0.6,17.7,0.6,26.4,0.6l142.8,9.5c12.3,2.8,25.1,2.9,37.1,7.5c11.4,4.4,18.8,13.5,24.3,23.9
			l21.2,75.2c4.8,17-2.5,35-17.9,43.7l-278.3,159c-10.5,6-22.9,6.7-34.1,2c-11.1-4.7-19.2-14.2-22.2-25.9
			c-13.2-51.7,7-95.1,30.5-145.1c3.6-6.1,7.6-11.8,14.3-14.4c6.6-2.5,13.6-2.8,20.6-3.1c6.6,0.5,13.2,0.9,19.8,1.2
			c11.2,0.5,22.4,0.9,33.6,0.7c4.1-0.1,7.8-3,8.6-7.2c0.9-4.8-2.2-9.5-7-10.5c-11-2.2-22.1-3.8-33.2-5.2c-2.2-0.3-4.4-0.5-6.6-0.8
			c-6-1.3-11.6-2.8-15.8-9c-1.7-2.3-3.1-4.7-4.7-7C1595.8,2422.4,1597.2,2416.9,1601.5,2412.9z M1488.8,1994.8l0.1,0.7
			c-0.3-0.2-0.6-0.4-0.9-0.7H1488.8z M1225.3,2062.4c12.5-11.9,31.3-13.2,47.5-14.5c1.2-0.1,2.2-0.5,3.1-1.1
			c8.3-1,16.6-2.3,24.8-3.9c4-0.7,7.1-4.2,7.3-8.4c0.2-4.9-3.7-9.1-8.6-9.3c-8.5-0.3-17-0.3-25.4-0.1c-8.6-0.8-18.5-2.4-23.1-7.5
			c-0.1-0.1-0.2-0.3-0.4-0.5c-1-5.2,1.5-10.7,5.5-14.2c4.7-4.2,10.5-5.5,16.6-6.5c5.1-0.8,10.1-1.2,15-1.6h144
			c20.3,2.3,49.4,5.6,58.7,24.2c4.9,9.8,6.4,20.6,10,30.8l13.7,65.7c2.9,14-5.2,27.6-18.9,31.7l-318.1,95.2
			c-8.1,2.4-16.7,1-23.6-3.9c-6.9-4.9-11-12.5-11.5-20.9c-1.6-33.9,5.5-57.6,17.1-77.6c8-12,19.2-21.2,33.3-25.8
			c7.3-2.4,14.6-3.6,21.6-5.7l10.5-0.9c5.6-0.6,11.1-1.1,16.7-1.7c11.1-1.3,22.2-2.8,33.3-4.9c4-0.8,7.1-4.2,7.3-8.5
			c0.2-4.9-3.7-9.1-8.6-9.2c-11.3-0.4-22.5-0.2-33.6,0.2c-2.4,0.1-4.8,0.2-7.2,0.3c-0.1,0-0.3-0.1-0.5-0.1c-2.8-0.5-7.2-1-9.5-3
			C1215,2074.8,1221,2066.6,1225.3,2062.4z M2081.7,2739.7c0,15.3-12.4,27.7-27.7,27.7H771.6c-15.3,0-27.7-12.4-27.7-27.7v-717.1
			c0-15.3,12.4-27.7,27.7-27.7h441.1c4.8,1,9,3.1,11,7.5c0.8,1.9,1,4.2,0.9,6.8c-1,2.3-2,4.6-3.1,6.9c-4.4,5.6-9.4,9.9-17.1,12.1
			c-5.1,1.4-10.2,2.4-15.2,3.8c-7.8,1-15.7,2.1-23.5,3.6c-4.1,0.7-7.2,4.2-7.3,8.5c-0.1,4.9,3.7,9.1,8.6,9.2c2,0.1,4,0.1,6,0.1
			c2.5,0.5,5.1,0.8,7.7,1.2c7,1,9.2,3.6,6.8,10.8c-0.3,0.8-0.6,1.6-0.9,2.4c-2.9,3.4-5.8,6.7-8.7,10c-6.5,5.7-13.9,10.1-22,13.2
			c-5.6,0.8-11.2,1.7-16.8,2.7c-4.1,0.8-7.2,4.2-7.3,8.5c-0.2,4.9,3.7,9.1,8.6,9.2c0.5,0,1.1,0,1.6,0c1.5,0.6,2.9,1.4,3.5,2.6
			c0.6,1.3,0.4,2.3-0.2,3.3c-17.3,25.1-29.3,55.2-27.1,101.7c0.7,15.7,8.6,30,21.4,39.1c8.8,6.2,19,9.4,29.4,9.4
			c4.9,0,9.9-0.7,14.7-2.2l318.1-95.2c25.6-7.6,40.7-33.1,35.2-59.2l-15.9-76.7c-2.7-13.9-5.7-32.2,8.6-35.7
			c7.4-1.7,15.1-2.8,22.8-3.6h16.3c0.6,0.2,1.3,0.4,2.1,0.4c6,0.3,14.5,0.1,19.2,4.7c5.4,5.3,3.8,17.2,3.8,24.1
			c0,9.3,0.1,18.5,0.1,27.8c-4.9,150.1-3.5,260-3.4,265.3c-0.2,17.3-2.1,33.5-5.2,48.8c-0.9,2.1-1.8,4.3-2.6,6.5
			c-1.6,4.3-2.9,5.7-7.7,6.3c-0.7,0.1-1.3,0.1-1.9,0.2c-4.7-0.1-9.5-0.1-14.2,0c-4.1,0.1-7.7,3-8.6,7.2c-1,4.9,2.2,9.6,7,10.5
			c0.4,0.1,0.8,0.1,1.2,0.2c9.4,2.8,13.8,6.2,12.1,17.2c-0.1,0.8-0.3,1.7-0.4,2.5c-1,2.6-2,5.2-3.1,7.8c-1.5,2.3-3.3,4.5-5.3,6.5
			c-4.5,4.3-10.1,6.2-16,7c-7.5-0.2-15-0.4-22.6-0.2c-4.1,0.1-7.7,3-8.5,7.2c-1,4.8,2.1,9.5,7,10.5c3.5,0.7,7.1,1.4,10.6,2
			c8.1,2,14.9,5.7,12.2,16.3c-0.3,1-0.6,2-0.9,2.9c-23.7,50.5-45.1,98.8-30.2,157.2c4.8,18.9,17.9,34.2,35.9,41.8
			c7.8,3.3,16.1,5,24.3,5c10.6,0,21.1-2.8,30.7-8.2l278.4-159c24.8-14.2,36.7-43.3,28.9-70.8l-30.9-109.6
			c-0.1-13.5-0.1-112.2,6.3-252.8c0.7-1.2,1.1-2.6,0.7-4.3c-0.1-0.7-0.3-1.4-0.4-2.1c0.3-6.8,0.7-13.7,1-20.6c0.5-1,0.9-2.1,0.9-3.5
			c0.8-24.2,4.1-50.4,32.9-53.9c5.2-0.7,10.4-0.9,15.6-1.2H2054c15.3,0,27.7,12.4,27.7,27.7V2739.7z"/>
		<path style="fill:#FFFFFF;" d="M1712.3,1169.7h449.3c0,0,0.1,0,0.1,0c0.1,0,0.1,0,0.1,0h145.5c28.3,0,51.4-23.1,51.4-51.4v-595
			c0-28.3-23-51.4-51.4-51.4h-595c-28.3,0-51.4,23.1-51.4,51.4v595C1660.9,1146.6,1684,1169.7,1712.3,1169.7z M1684.6,795.2
			c0.1-1.6,0.4-3.2,0.7-4.8c0.5-2.4,0.1-4.4-0.7-6.1v-261c0-15.3,12.4-27.7,27.7-27.7h595c15.3,0,27.7,12.4,27.7,27.7v595
			c0,15.3-12.4,27.7-27.7,27.7h-105.8c-5.5-0.9-11.5-0.4-17.8-2.3c-12.1-3.6-16.4-14.7-21.6-25c-4.7-13.4-10-26.2-15.8-38.6
			c-0.3-0.9-0.7-1.7-1.2-2.5c-18.4-38-42.3-70.9-72.2-99.5c-0.1-0.1-0.2-0.1-0.2-0.2c-0.4-0.3-0.7-0.6-1.1-0.8
			c-0.3-0.2-0.5-0.4-0.8-0.6c-0.3-0.2-0.7-0.4-1.1-0.5c-0.3-0.2-0.7-0.4-1-0.5c-0.3-0.1-0.7-0.2-1-0.3c-0.4-0.1-0.8-0.2-1.2-0.3
			c-0.3-0.1-0.7-0.1-1-0.1c-0.4,0-0.8,0-1.3,0c-0.3,0-0.6,0.1-0.9,0.1c-0.5,0.1-0.9,0.1-1.4,0.3c-0.1,0-0.2,0-0.3,0.1
			c-40,11.5-84.2,6.7-118.3-12.8c-31.3-17.9-52.9-47-62.4-83.9c0-0.1-0.1-0.1-0.1-0.2c-0.1-0.4-0.3-0.9-0.5-1.3
			c-0.1-0.4-0.3-0.7-0.5-1.1c0,0,0,0,0-0.1c-1.8-3.4-5.2-5.7-9-6.1c-33.8-9.7-66.8-16.6-98.7-23.3c-19.7-4.1-38.8-8.1-57.5-12.6
			c-4.2-1.5-8.4-3.1-12.4-5.3c-10.2-5.5-16.3-15.8-17.3-26.8V795.2z M1684.6,911.5c0.1-0.6,0.1-1.2,0.1-1.8c0-0.5-0.1-1-0.1-1.5
			v-22.6c1.3-11.9,5.6-22.9,17.7-26.7c3.3-1,6.8-1.2,10.5-1c17.7,4.2,35.7,8,54.2,11.8c19.1,4,38.6,8.1,58.4,12.8
			c7,2.4,13.9,4.8,20.9,7.2c8.7,3.1,12.4,5.1,16,13.5c2.4,5.7,5.2,10.9,8.4,15.8c13.6,27,34.2,48.8,60.7,64
			c25.7,14.7,55.3,22.2,85.6,22.2c5.2,0,10.4-0.3,15.6-0.7c1,0.2,2.1,0.2,3.2,0.1c12.6-2,22.5-1.4,33.2,6.6
			c8.8,6.6,16.3,15.3,22.8,24.1c0.4,0.6,0.9,1.1,1.4,1.5c18,24.5,32.6,51.9,44.1,82.4c0.1,2.8,0,5.6-0.4,8.3
			c-2.4,13.6-14.1,16.9-26.7,18.3h-397.6c-15.3,0-27.7-12.4-27.7-27.7V911.5z"/>
		<path style="fill:#FFFFFF;" d="M1604.2,2586.1c-11.4,7-22.7,14.1-33.9,21.4c-3.7,2.4-5.2,7.3-3.1,11.4c2.2,4.4,7.5,6.2,11.9,4
			c12-5.9,23.9-12.1,35.7-18.3c11.8-6.2,23.6-12.6,35.3-19c23.4-12.9,46.7-25.9,70-39.1c23.2-13.2,46.3-26.7,69.3-40.3
			c11.5-6.8,23-13.7,34.3-20.7c11.4-7,22.7-14.1,33.9-21.5c3.6-2.4,5.1-7.2,3.1-11.3c-2.1-4.4-7.5-6.2-11.9-4.1
			c-12,5.8-23.9,12-35.7,18.2c-11.9,6.2-23.6,12.6-35.3,19c-23.4,12.9-46.7,26-69.9,39.2c-23.2,13.3-46.2,26.8-69.2,40.4
			C1627,2572.2,1615.6,2579.1,1604.2,2586.1z"/>
		<path style="fill:#FFFFFF;" d="M1199.4,364h343.2c15.3,0,27.7,12.4,27.7,27.7v339.9c-0.7,4.9-0.9,10-1.3,15.2
			c-1.1,13.7-11.6,13.8-21.9,10.5c-33-27-62.8-61.4-90.3-104.4c-24.3-37.9-54.9-64.5-88.5-77c-31.3-11.6-62.7-10.1-88.5,4.3
			c-44.2,24.7-69.8,89-27.3,177.1c47.6,98.8,128.5,181.4,240.4,245.5c0.1,0,0.1,0.1,0.2,0.1c0,0,0.1,0.1,0.1,0.1
			c16.6,9.5,34,18.5,51.8,27.1c13.2,9,24.1,20.3,25.1,37.8c0,0.8,0.1,1.6,0.1,2.3v7.9c-0.3,10.8-1.5,21.4,0,32v8.1
			c0,15.3-12.4,27.7-27.7,27.7H929c-6.5,0-11.8,5.3-11.8,11.8c0,6.5,5.3,11.8,11.8,11.8h613.6c28.3,0,51.4-23.1,51.4-51.4V391.7
			c0-28.3-23.1-51.4-51.4-51.4h-343.2c-6.5,0-11.8,5.3-11.8,11.8C1187.5,358.7,1192.8,364,1199.4,364z M1482.2,891.1
			c-4.3,10.7-7.1,21.3-8.7,31.8c-0.9,4.2-1.4,8.6-1.9,13.2c-0.6,5.1-1.3,12-6.4,14.6c-3.6,1.9-7.8,1-11.7-0.7
			c-81.4-56.2-141.7-124.3-179.6-203c-35.7-74.2-16.9-126.8,17.5-146.1c38-21.2,100.2-5.8,145.5,64.8c31.4,48.9,65.8,87.5,104.3,117
			c2.4,3.8,8.5,8.1,10,12c3.7,9.4-2.9,16.8-10.3,23.6C1515.7,835.5,1494.1,861.5,1482.2,891.1z M1570.3,941.2c0,0.2,0,0.4,0,0.7
			c0,0.3,0,0.6,0,0.9v17.6c-0.8,15.2-4.1,32.1-14.8,38.6c-5.2,3.2-11.1,3.3-17.1,1.5c-4.9-2.5-9.9-5-14.7-7.6
			c-6.2-4.5-11.8-10-15.9-14.9c-5.2-6.9-8.3-14.6-10.7-22.6c-3-17.5-0.7-36.4,6.9-55.4c9.1-22.5,24.5-42.5,42.7-56.8
			c7.6-4.7,16.9-8.2,20.6,2.6c1.7,5,2.5,10.5,2.9,16V941.2z"/>
		<path style="fill:#FFFFFF;" d="M1208.2,2178.6c-13.2,4.3-26.2,8.8-39.3,13.4c-4.2,1.5-6.8,6-5.7,10.5c1.2,4.8,6,7.7,10.8,6.5
			c13.4-3.3,26.9-6.8,40.2-10.4c13.4-3.5,26.7-7.2,40-11c26.7-7.3,53.2-15.1,79.7-23c26.5-8,52.9-16.3,79.2-24.7
			c13.2-4.1,26.3-8.5,39.5-12.8c13.2-4.3,26.2-8.8,39.3-13.3c4.3-1.5,6.8-6.1,5.7-10.6c-1.2-4.7-6-7.6-10.8-6.4
			c-13.4,3.4-26.8,6.8-40.2,10.5c-13.4,3.6-26.7,7.2-40,11c-26.7,7.4-53.3,15-79.8,22.9c-26.5,8-53,16.1-79.3,24.6
			C1234.5,2170,1221.3,2174.2,1208.2,2178.6z"/>
		<path style="fill:#FFFFFF;" d="M1144.2,826.4c-3.6-1.6-6.2-5-6.8-9c-0.1-0.5-0.1-1.1-0.1-1.6l-1-29.3c-0.1-2.7-2-4.9-4.7-5.4
			l-23-4.4c-2.7-0.5-5.3,0.9-6.4,3.3l-11.9,27.1c-1.8,4.1-5.8,6.8-10.2,7.1c-8.8,0.8-17.5,2.6-25.8,5.4c-3.8,1.2-8,0.5-11.1-2
			c-0.2-0.2-0.4-0.4-0.7-0.6l-21.7-20.1c-2-1.8-4.9-2.1-7.2-0.6l-19.4,13.2c-2.2,1.5-3.1,4.3-2.1,6.9l10.8,27.5
			c1.6,4,0.8,8.6-2,11.9c-5.7,6.8-10.7,14.3-14.7,22.3c-0.1,0.3-0.3,0.6-0.5,0.9c-2.2,3.7-6,5.7-10,5.8l-29.2,1
			c-2.7,0.1-4.9,2-5.5,4.7l-4.4,23c-0.5,2.6,0.9,5.3,3.3,6.3l26.7,11.7c3.6,1.4,6.5,4.6,7.3,8.7c0.1,0.4,0.1,0.9,0.2,1.3
			c0.8,8.9,2.6,17.7,5.5,26.2c1.4,4.1,0.4,8.6-2.6,11.8l-20.2,21.7c-1.8,2-2.1,4.9-0.5,7.2l13.2,19.4c1.5,2.3,4.4,3.1,6.9,2.1
			l27.5-10.8c0.8-0.3,1.6-0.5,2.4-0.7c3.4-0.6,6.9,0.4,9.6,2.6c6.8,5.7,14.2,10.6,22.1,14.6c4,1.9,6.6,5.8,6.8,10.3l1,29.6
			c0.1,2.7,2,4.9,4.7,5.4l23,4.4c2.6,0.5,5.3-0.9,6.4-3.3l11.8-26.9c0.2-0.5,0.5-1,0.8-1.5c2.1-3.4,5.6-5.5,9.4-5.7
			c8.9-0.8,17.6-2.6,26-5.4c4.1-1.4,8.6-0.4,11.8,2.6l21.6,20.1c2,1.9,4.9,2.1,7.2,0.6l19.4-13.2c2.2-1.5,3.1-4.4,2.1-6.9
			l-10.8-27.6c-1.6-4-0.8-8.6,2-11.9c5.7-6.8,10.7-14.4,14.8-22.4c2-4,6.1-6.5,10.6-6.5l29.1-1c2.7-0.1,4.9-2,5.5-4.7l4.4-23
			c0.5-2.7-0.9-5.3-3.3-6.4l-26.8-11.8c-4.1-1.7-6.9-5.5-7.3-9.9c-0.8-8.9-2.6-17.8-5.4-26.2c-1.4-4.1-0.4-8.6,2.5-11.8l20.2-21.7
			c1.8-2,2.1-4.9,0.5-7.2l-13.2-19.4c-1.5-2.3-4.4-3.1-6.9-2.1l-27.5,10.8c-4,1.6-8.6,0.8-11.9-2
			C1159.5,835.3,1152.1,830.4,1144.2,826.4z M1147.9,941.9c-6,31.4-36.4,52-67.8,46c-31.4-6-52-36.3-46-67.8c6-31.4,36.4-52,67.8-46
			C1133.3,880.1,1153.9,910.5,1147.9,941.9z"/>
		<path style="fill:#FFFFFF;" d="M607.1,417.3l-10.3,58.1c-0.7,4.1,1.5,8.1,5.3,9.8l56.1,23.7c4.1,1.5,7.2,5.2,7.6,9.9
			c1.7,16.7,5.4,33.1,10.9,49c1.4,4.1,0.5,8.6-2.4,11.8l-41.3,45.6c-2.8,3.1-3.1,7.7-0.7,11.1l33.8,48.3c2.4,3.4,6.8,4.7,10.7,3.1
			l56.9-23.1c0.4-0.1,0.7-0.3,1.1-0.4c3.8-1.1,7.8-0.3,10.9,2.1c12.9,10.5,27,19.5,41.9,26.8c4,1.8,6.8,5.7,7,10.2l3,61.4
			c0.2,4.2,3.2,7.6,7.4,8.3l58.1,10.3c4.1,0.7,8.1-1.5,9.8-5.3l23.8-56.3c0.3-0.8,0.7-1.5,1.2-2.3c2.1-3.1,5.5-5,9-5.2
			c16.6-1.7,32.9-5.4,48.6-10.8c4.3-1.5,8.9-0.4,12.1,2.7l45.2,41c3.1,2.8,7.7,3.1,11.1,0.7l48.3-33.8c3.4-2.4,4.7-6.8,3.2-10.7
			l-23.2-57c-1.6-4-0.9-8.6,1.8-12c10.5-12.9,19.6-27.1,27-42.2c2-4,6.1-6.6,10.6-6.6c0,0,0,0,0.1,0l60.8-3c4.2-0.2,7.6-3.2,8.4-7.4
			l10.2-58.1c0.7-4.1-1.5-8.1-5.3-9.8l-56.2-23.7c-4.1-1.6-7.1-5.4-7.6-9.9c-1.7-16.7-5.4-33.1-10.8-48.9c-1.4-4.1-0.5-8.6,2.4-11.8
			l41.3-45.6c2.8-3.1,3.1-7.7,0.7-11.1l-33.8-48.3c-2.4-3.4-6.8-4.7-10.7-3.2l-56.7,23c-4.1,1.7-8.8,1.1-12.2-1.7
			c-12.8-10.4-26.9-19.4-41.8-26.7c-3.5-1.5-6.2-4.7-6.9-8.5c-0.1-0.7-0.2-1.5-0.3-2.2l-3-61c-0.2-4.2-3.2-7.6-7.3-8.4l-58.1-10.2
			c-4.1-0.7-8.1,1.5-9.8,5.3L871.1,271c-1.8,4.2-5.8,7-10.3,7.2c-16.5,1.7-32.8,5.4-48.4,10.8c-3.5,1.2-7.4,0.7-10.5-1.4
			c-0.5-0.3-0.9-0.7-1.4-1.1l-45.6-41.3c-3.1-2.8-7.7-3.1-11.1-0.7l-48.3,33.8c-3.4,2.4-4.7,6.8-3.1,10.7l23.1,57
			c1.6,4,0.9,8.6-1.8,11.9c-10.5,12.9-19.6,27.1-26.9,42.1c-0.1,0.2-0.2,0.5-0.4,0.7c-2.1,3.8-6.1,6-10.2,6.1l-61,3
			C611.2,410.2,607.8,413.2,607.1,417.3z M781.1,478.1c10-56.8,64.2-94.7,121.1-84.7c56.8,10,94.7,64.2,84.7,121.1
			c-10,56.8-64.2,94.7-121,84.7C809,589.1,771.1,534.9,781.1,478.1z"/>
		<path style="fill:#FFFFFF;" d="M355.4,1852.9c9.5,32.2,39.3,55.8,74.6,55.8h420.6c36.2,0,67.3-25.1,75.6-59.6
			c32.8-9.1,57-39.2,57-74.9V1384c0-0.2,0-0.4,0-0.6v-114.7c0-9.9-5.6-18.5-14.6-22.5c-9-4-19.2-2.4-26.5,4.2l-55.6,50.2
			c-4.3,3.9-9.9,6-15.6,6H484.7c-36.6,0-67.3,25.4-75.6,59.5c-33.4,9.2-56.9,39.4-56.9,74.9v389.9c0,7.4,1.1,14.6,3,21.4
			C355.3,1852.5,355.3,1852.7,355.4,1852.9z M607.5,1852c0,0-0.1,0-0.1-0.1h6.8C611.9,1852,609.7,1852,607.5,1852z M430.7,1384.3
			c0-29.8,24.2-54.1,54-54.1h385.9c11.7,0,22.8-4.3,31.5-12.1l55.6-50.2c0.2-0.2,0.4-0.4,1-0.1c0.6,0.2,0.6,0.6,0.6,0.9v49.2
			c0,0.2,0,0.4,0,0.6v455.8c0,29.8-24.3,54-54.1,54H484.7c-29.8,0-54-24.2-54-54V1384.3z M407,1655.4c-0.1-0.1-0.2-0.1-0.3-0.1
			c0.1-2.6,0.2-5.2,0.3-7.8V1655.4z M407,1519v3.6c-0.2-0.2-0.4-0.4-0.7-0.5C406.6,1521.1,406.8,1520,407,1519z"/>
		<path style="fill:#FFFFFF;" d="M859.5,1050c0.8-4.3,3.9-7.7,8.1-9l37.5-11.7c3.9-1.2,6.5-4.9,6.1-9.1l-2.5-32.8
			c-0.3-4.1-3.4-7.4-7.5-8l-38.8-5.7c-4.3-0.6-7.9-3.6-9.4-7.6c-4-10.8-9.2-21.2-15.6-30.8c-2.3-3.1-2.9-7.2-1.5-10.9
			c0.2-0.6,0.5-1.2,0.8-1.8l18.1-34.4c1.9-3.6,1-8.1-2.1-10.8l-25-21.3c-3.1-2.7-7.6-2.8-10.9-0.4l-31.5,23.4
			c-3.7,2.7-8.5,3.1-12.4,1.1c-10.5-4.8-21.6-8.4-32.8-10.6c-3.8-0.8-7-3.4-8.6-7c-0.1-0.4-0.3-0.7-0.4-1.1L719.2,824
			c-1.2-3.9-4.9-6.5-9.1-6.1l-32.8,2.6c-4.1,0.3-7.4,3.4-8,7.5l-5.7,38.9c-0.6,4.3-3.6,7.8-7.6,9.4c-10.9,4.1-21.4,9.4-31.1,15.8
			c-0.2,0.1-0.4,0.2-0.5,0.4c-3.8,2.3-8.3,2.2-11.9,0.1l-34.4-18c-3.7-1.9-8.1-1.1-10.8,2.1l-21.4,25c-2.7,3.1-2.8,7.6-0.4,10.9
			l23.1,31.1c2.7,3.4,3.4,8.1,1.5,12.3c-4.9,10.7-8.5,21.9-10.8,33.3c-0.9,4.2-4,7.7-8.1,8.9l-37.5,11.7c-3.9,1.2-6.5,4.9-6.1,9.1
			l2.5,32.8c0.3,4.1,3.4,7.4,7.5,8l38.8,5.7c0.5,0.1,1,0.2,1.5,0.4c3.6,1,6.5,3.7,7.8,7.3c4,10.8,9.3,21.2,15.6,30.9
			c2.6,3.6,3,8.4,0.9,12.4l-18.2,34.7c-1.9,3.6-1,8.1,2.1,10.8l25,21.4c3.1,2.7,7.6,2.8,10.9,0.4l31.3-23.3c0.4-0.3,0.9-0.6,1.4-0.9
			c3.5-2,7.7-2,11.1-0.4c10.5,4.8,21.7,8.4,33,10.7c4.3,0.9,7.7,3.9,9,8.1l11.7,37.4c1.2,3.9,4.9,6.5,9.1,6.1l32.8-2.6
			c4.1-0.3,7.4-3.4,8-7.5l5.7-38.9c0.6-4.3,3.6-7.9,7.6-9.4c10.9-4,21.4-9.4,31.2-15.8c3.8-2.5,8.6-2.6,12.5-0.4l34.3,18
			c3.6,1.9,8.1,1.1,10.7-2.1l21.4-25c2.7-3.1,2.8-7.6,0.4-10.9l-23.2-31.2c-2.7-3.5-3.3-8.2-1.5-12.3
			C853.6,1072.6,857.2,1061.4,859.5,1050z M767.5,1069.2c-27.4,32-75.5,35.8-107.5,8.4c-32-27.3-35.8-75.5-8.4-107.5
			c27.4-32,75.5-35.8,107.5-8.4S794.9,1037.1,767.5,1069.2z"/>
		<path style="fill:#FFFFFF;" d="M516.7,1428.7c14.9,0.7,29.7,1.2,44.6,1.6c14.8,0.5,29.7,0.7,44.6,1c29.7,0.6,59.4,0.8,89.2,0.9
			c29.7-0.1,59.4-0.3,89.2-0.9c14.9-0.2,29.7-0.5,44.6-0.9c14.9-0.4,29.7-0.9,44.6-1.6c4.5-0.2,8.3-3.9,8.5-8.5
			c0.2-4.9-3.6-9.1-8.5-9.3c-14.8-0.7-29.7-1.2-44.6-1.6c-14.9-0.5-29.7-0.7-44.6-1c-29.7-0.6-59.4-0.8-89.2-0.9
			c-29.7,0.1-59.4,0.3-89.2,0.9c-14.9,0.2-29.7,0.5-44.6,1c-14.9,0.4-29.7,0.9-44.6,1.6c-4.5,0.2-8.2,3.9-8.5,8.5
			C508,1424.3,511.8,1428.4,516.7,1428.7z"/>
		<path style="fill:#FFFFFF;" d="M873.4,1545.5c-48.9-2.3-97.7-2.8-146.6-2.9l-36.6,0.1c-12.2,0.1-24.4,0.2-36.7,0.5
			c-24.4,0.4-48.9,1.2-73.3,2.3c-4.5,0.2-8.2,3.9-8.4,8.5c-0.2,4.9,3.6,9.1,8.4,9.3c24.4,1.2,48.9,2,73.3,2.3
			c12.2,0.3,24.4,0.3,36.7,0.5l36.6,0.1c48.9-0.1,97.7-0.7,146.6-3c4.5-0.2,8.3-3.9,8.5-8.5C882.1,1549.9,878.3,1545.7,873.4,1545.5
			z"/>
		<path style="fill:#FFFFFF;" d="M732.5,1498.1c15.7,0.5,31.3,0.7,47,0.7c15.6,0.1,31.3-0.1,46.9-0.4c15.7-0.5,31.3-1.1,46.9-2.5
			c4.2-0.4,7.7-3.7,8.1-8.1c0.4-4.9-3.2-9.2-8.1-9.7c-15.6-1.4-31.3-2-46.9-2.5c-15.6-0.4-31.3-0.6-46.9-0.4
			c-15.7,0.1-31.3,0.3-47,0.7c-15.6,0.4-31.3,1.1-46.9,2.2c-4.4,0.3-8,3.8-8.3,8.3c-0.3,4.9,3.4,9.2,8.3,9.5
			C701.2,1497,716.8,1497.7,732.5,1498.1z"/>
		<path style="fill:#FFFFFF;" d="M873.4,1755.3c-6.6-1.4-13.3-2-19.9-2.5c-6.7-0.4-13.3-0.6-20-0.5c-6.7,0.1-13.3,0.3-20,0.7
			c-6.7,0.5-13.3,1.1-20,2.2c-3.7,0.6-6.7,3.5-7.4,7.4c-0.8,4.9,2.5,9.6,7.4,10.4c6.7,1.1,13.3,1.7,20,2.2c6.7,0.5,13.3,0.7,20,0.7
			c6.6,0.1,13.3-0.1,20-0.4c6.6-0.5,13.3-1.1,19.9-2.5c3.5-0.7,6.3-3.4,7.1-7.1C881.4,1761.2,878.3,1756.4,873.4,1755.3z"/>
		<path style="fill:#FFFFFF;" d="M764.4,1683.9l-54.2-46.2c-3.5-3-8.7-2.8-12,0.4c-3.5,3.5-3.5,9.1-0.1,12.6l41.6,41.9l-41.6,41.9
			c-3.2,3.2-3.5,8.5-0.4,12c3.2,3.7,8.8,4.2,12.5,1l54.2-46.2c0.4-0.4,0.9-0.8,1.3-1.3C769.8,1695.2,769.2,1688,764.4,1683.9z"/>
		<path style="fill:#FFFFFF;" d="M658.7,1613.5c-4.6-1.9-9.8,0.2-11.7,4.8c-4.8,11.6-9.1,23.3-13.3,35.2c-4.1,11.8-8,23.7-11.8,35.6
			c-3.7,11.9-7.3,23.9-10.6,36c-3.3,12.1-6.4,24.2-8.9,36.6c-0.8,4.1,1.3,8.3,5.3,10c4.5,1.9,9.8-0.2,11.7-4.7
			c4.9-11.6,9.3-23.3,13.4-35.1c4.1-11.8,8-23.7,11.6-35.7c3.6-11.9,7.2-23.9,10.5-36c3.3-12.1,6.4-24.2,9-36.5
			C664.9,1619.4,662.7,1615.1,658.7,1613.5z"/>
		<path style="fill:#FFFFFF;" d="M457.6,1169.7h46.6c6.5,0,11.8-5.3,11.8-11.8c0-6.5-5.3-11.8-11.8-11.8h-46.6
			c-15.3,0-27.7-12.4-27.7-27.7V391.7c0-15.3,12.4-27.7,27.7-27.7h183.8c6.5,0,11.8-5.3,11.8-11.8c0-6.5-5.3-11.8-11.8-11.8H457.6
			c-28.3,0-51.4,23-51.4,51.4v726.5C406.3,1146.6,429.3,1169.7,457.6,1169.7z"/>
		<path style="fill:#FFFFFF;" d="M640.3,2223.3c-0.9-2-2-3.9-3-5.9c-0.5-0.9-1-2-1.5-2.9l-1.7-2.7c-9-14.2-19.8-25.4-30.8-35.9
			c-11.1-10.4-22.5-20-34.2-29.1c-5.7-4.6-11.8-9-17.5-13.5c-5.6-4.3-11.2-8.6-16.6-13.1c-10.8-8.9-21.1-18.3-29.9-28.3
			c-2.2-2.5-4.4-5-6.3-7.6c-2.1-2.5-3.8-5.2-5.6-7.8c-3.3-5.3-6-10.6-7.4-15.7c-1.4-5.1-1.5-9.5-0.3-13.7c1.2-4.2,3.6-8,6.8-10.8
			c3.3-2.9,7.6-4.7,12.7-5.8c5.1-0.9,10.9-0.8,16.9-0.1c12.1,1.7,24.7,6.3,37.2,12.1l0.1,0.1c4.7,2.2,10.5,0.8,13.6-3.6
			c3.5-4.9,2.3-11.8-2.6-15.3c-12.6-8.9-26.9-16.2-43.4-20c-8.3-1.7-17.1-2.6-26.4-1.3c-9.2,1.3-18.8,4.9-26.7,11.5
			c-7.9,6.5-13.7,15.5-16.4,25.2c-2.9,9.8-2.4,20.4,0.1,29.3c2.5,9,6.5,16.6,10.9,23.7c2.3,3.5,4.5,6.9,7,10c2.4,3.3,5,6.2,7.6,9.2
			c10.4,11.8,21.6,22,33.1,31.6c5.7,4.9,11.7,9.4,17.6,14c5.7,4.5,11.4,8.7,17,13.2c11.2,8.8,21.9,18,32,27.5
			c10,9.5,19.3,19.6,25.8,30l1.2,2c0.4,0.6,0.7,1.3,1,1.9l2,3.8c0.9,2.5,2,5,2.3,7.3c0.9,4.7,0.6,8.8-0.9,13c-0.5,1.1-1,2.1-1.5,3.2
			c-0.5,1-0.9,1.6-1.4,2.3c-0.9,1.1-1.8,1.8-3.1,2.5c-2.5,1.3-7.5,1.7-13.1,1.1c-11.6-1.4-24.7-6-37.3-11.4
			c-12.7-5.4-25.4-11.8-37.9-18.5c-12.6-6.7-24.6-13.9-37.8-21.3c-13.1-7.2-26.5-14-40.4-20c-14-6-28.5-11.3-44.5-14.5
			c-8-1.5-16.5-2.5-25.6-2c-4.6,0.3-9.3,0.9-14.2,2.5c-4.8,1.5-9.8,3.6-14.4,6.8c-4.5,3.2-8.6,7.3-11.6,11.9
			c-3,4.6-5.2,9.5-6.5,14.2c-1.3,4.8-2,9.3-2.3,14.4c-0.2,5,0.3,10,1.3,14.9c2.2,9.6,6.4,17.9,11.1,25c4.7,7.1,9.9,13.3,15.2,19
			c10.7,11.4,21.9,21.4,33.4,31c11.4,9.5,23,18.6,34.7,27.5c23.4,17.7,47.1,34.7,70.9,51.5l35.8,25.1l17.9,12.4l8,6
			c2.5,2.1,5.1,4.2,7.5,6.4c9.7,8.8,18,18.9,23.9,29.8c0.8,1.3,1.4,2.8,2.1,4.1c0.6,1.4,1.3,2.8,1.8,4.2c1,2.8,2.1,5.6,2.7,8.4
			c1.4,5.5,2,11.2,1.3,16.1c-0.4,2.4-0.8,4.8-1.7,6.9c-0.3,1.1-0.9,2-1.4,3c-0.4,1-1.1,1.9-1.7,2.8c-2.7,3.4-5.5,5.2-9.7,6.4
			c-4.2,1.1-9.8,1.1-15.8,0.3c-6-0.8-12.3-2.5-18.6-4.6c-12.7-4.1-25.4-9.9-38-16.1c-12.6-6.3-25-13.3-37.3-20.5l-36.9-22
			c-12.4-7.3-24.8-14.8-37.6-21.6l-0.1-0.1c-4.5-2.4-10.1-1.4-13.6,2.6c-3.9,4.6-3.4,11.6,1.2,15.5c11.2,9.5,22.8,18.5,34.8,26.9
			c6,4.3,12.1,8.3,18.2,12.4c6.2,4,12.4,7.9,18.7,11.7c12.7,7.6,25.6,14.8,39,21.6c13.4,6.7,27.2,13.1,42.1,18
			c7.5,2.4,15.2,4.6,23.7,5.8c8.4,1.2,17.6,1.6,27.5-0.9c4.9-1.2,9.9-3.4,14.4-6.3c4.5-2.9,8.5-6.7,11.6-10.7c1.5-2,2.9-4.1,4.1-6.3
			c1.2-2.2,2.5-4.4,3.3-6.8c1.9-4.7,3-9.4,3.6-14.2c1.3-9.5,0.1-18.6-1.9-27.1c-2-8.6-5.4-16.4-9.2-23.8
			c-7.9-14.7-18.4-27.3-30.1-38c-3-2.6-6-5.2-9.1-7.7c-3.1-2.4-6.3-4.7-9.4-7.1l-17.9-12.5l-35.5-25c-23.6-16.8-47.1-33.7-69.9-51.1
			c-11.4-8.7-22.7-17.6-33.5-26.7c-10.8-9.1-21.3-18.5-30.4-28.3c-4.5-4.9-8.6-10-12-15c-3.3-5-5.5-10-6.6-14.6
			c-0.4-2.3-0.6-4.5-0.6-6.8c0.1-2.2,0.6-4.9,1.2-7.1c1.3-4.5,3.3-7.2,6-9.2c2.8-2,7.1-3.3,12.5-3.7c5.4-0.4,11.5,0.2,17.7,1.4
			c12.5,2.4,25.5,7,38.2,12.3c12.7,5.4,25.3,11.8,37.7,18.5c12.2,6.7,25.1,14.4,38.2,21.3c13.1,7,26.5,13.7,40.5,19.6
			c14.1,5.8,28.6,11.3,45.9,13.5c4.4,0.4,9,0.6,14,0.2c4.9-0.5,10.3-1.7,15.6-4.2c5.3-2.5,10.2-6.5,13.8-11c1.7-2.2,3.3-4.7,4.4-6.9
			c1-2.2,2.1-4.4,3-6.7c3.6-9.4,4.2-20.3,2.2-29.8C643.6,2231.8,641.9,2227.6,640.3,2223.3z"/>
		<path style="fill:#FFFFFF;" d="M500.8,1701.3l54.2,46.2c3.5,2.9,8.7,2.8,12-0.5c3.5-3.5,3.5-9.1,0.1-12.6l-41.6-41.9l41.6-41.9
			c3.2-3.3,3.5-8.5,0.4-12c-3.2-3.8-8.8-4.2-12.5-1l-54.2,46.2c-0.4,0.4-0.9,0.8-1.3,1.3C495.4,1689.9,496,1697.2,500.8,1701.3z"/>
	</g>
</g>
</svg>
