<svg width="2000" height="2000" viewBox="0 0 2000 2000" fill="none" xmlns="http://www.w3.org/2000/svg">
<path d="M398.052 714.63C392.402 784.27 377.552 852.74 364.862 921.47C351.512 993.47 340.222 1066.8 311.452 1134.19C300.092 1160.8 286.052 1186.38 277.642 1214.06C275.572 1220.89 274.512 1229.76 280.382 1233.8C284.932 1236.92 291.062 1235.21 296.322 1233.55C352.862 1215.61 413.512 1215.74 472.862 1218.04C545.582 1220.93 618.092 1226.98 690.392 1236.17C695.552 1236.83 701.622 1237.17 705.072 1233.29C707.072 1231.09 707.612 1228.03 708.072 1225.12C713.592 1185.8 700.212 1146.58 687.482 1108.97C654.062 1010.21 623.822 910.447 596.762 809.68C579.462 745.24 562.612 678.6 522.762 625.04C498.022 591.76 465.552 565.17 433.432 538.95C423.042 530.46 397.682 496.5 383.162 496.45C379.282 496.45 385.652 537.9 388.092 548.08C396.422 582.94 400.002 618.83 400.322 654.63C400.512 674.65 399.672 694.68 398.052 714.63Z" fill="#FACBDF"/>
<path d="M369.461 910.48C369.275 910.495 369.088 910.495 368.901 910.48C368.38 910.408 367.879 910.233 367.425 909.967C366.972 909.7 366.576 909.347 366.259 908.927C365.942 908.507 365.711 908.029 365.58 907.52C365.448 907.011 365.418 906.481 365.491 905.96C369.061 880.66 373.171 855.8 377.141 831.75C383.401 793.74 389.861 754.56 394.071 714.22C400.731 650.22 393.521 552.08 378.641 504.22C378.477 503.716 378.414 503.184 378.457 502.656C378.5 502.127 378.648 501.613 378.891 501.142C379.135 500.671 379.47 500.253 379.876 499.913C380.282 499.572 380.753 499.316 381.259 499.159C381.765 499.002 382.298 498.947 382.826 498.998C383.353 499.048 383.866 499.203 384.333 499.454C384.8 499.704 385.213 500.045 385.548 500.456C385.882 500.868 386.132 501.341 386.281 501.85C401.421 550.54 408.781 650.17 402.031 715.05C397.811 755.63 391.311 794.97 385.031 833.05C381.031 857.05 376.971 881.86 373.421 907.05C373.284 908.002 372.808 908.873 372.081 909.503C371.354 910.133 370.424 910.48 369.461 910.48Z" fill="black"/>
<path d="M557.391 1225.82H557.241C541.111 1225.25 525.851 1224 511.101 1222.82C478.321 1220.15 444.431 1217.39 397.041 1221.5C396.516 1221.55 395.987 1221.49 395.484 1221.33C394.982 1221.17 394.515 1220.91 394.112 1220.57C393.709 1220.23 393.376 1219.82 393.133 1219.35C392.89 1218.88 392.742 1218.37 392.696 1217.85C392.651 1217.32 392.71 1216.79 392.869 1216.29C393.028 1215.79 393.285 1215.32 393.624 1214.92C393.964 1214.51 394.379 1214.18 394.847 1213.94C395.315 1213.69 395.826 1213.55 396.351 1213.5C444.411 1209.33 478.642 1212.12 511.752 1214.82C526.411 1216.01 541.581 1217.25 557.531 1217.82C558.592 1217.84 559.602 1218.28 560.339 1219.04C561.076 1219.8 561.48 1220.83 561.461 1221.89C561.443 1222.95 561.004 1223.96 560.24 1224.7C559.477 1225.44 558.452 1225.84 557.391 1225.82Z" fill="black"/>
<path d="M453.292 728.281C493.807 923.202 519.404 1120.93 529.862 1319.74C530.212 1326.44 536.862 1329.86 543.292 1327.92C738.132 1269.4 833.912 1308.51 979.412 1288.01C1053.19 1277.61 1123.94 1251.55 1197.41 1238.89C1280.52 1224.57 1365.52 1227.65 1449.79 1230.78C1464.86 971.777 1441.93 711.963 1381.74 459.601C1232.62 496.601 1075.88 464.651 922.342 470.661C801.042 475.431 680.862 504.011 559.662 498.281C529.742 496.871 499.972 493.391 470.082 491.711C455.082 490.871 440.032 490.471 425.012 491.041C417.512 491.331 410.012 491.851 402.582 492.681C396.582 493.341 388.442 493.231 383.162 496.451C374.622 501.651 382.362 513.341 385.722 519.451C392.188 531.211 398.092 543.247 403.432 555.561C414.517 581.521 423.831 608.202 431.312 635.421C438.982 662.721 445.312 690.421 451.162 718.111C451.862 721.491 452.592 724.891 453.292 728.281Z" fill="#1B5EC9"/>
<path d="M952.542 1031.8C948.902 1031.8 945.462 1031.71 942.292 1031.54C939.261 1031.36 936.381 1030.16 934.122 1028.13C931.864 1026.1 930.362 1023.37 929.862 1020.37C928.932 1014.59 927.462 1008.61 926.052 1002.82C924.106 995.518 922.604 988.105 921.552 980.621C921.232 977.951 920.842 974.871 920.422 971.621C918.962 960.131 917.142 945.841 916.972 936.341C916.792 926.521 927.552 926.041 934.682 925.721C936.912 925.621 939.022 925.531 940.802 925.261C954.312 923.201 965.972 922.201 977.242 921.261C988.182 920.311 998.522 919.421 1010.06 917.651C1013.78 917.071 1018.66 918.241 1021.16 922.151C1022.17 923.901 1022.72 925.879 1022.76 927.901C1026.52 973.581 1029.76 1001.54 1032.38 1011C1032.67 1012.09 1032.69 1013.24 1032.44 1014.34C1032.18 1015.45 1031.67 1016.47 1030.93 1017.33C1026.93 1022.26 1014.38 1026.19 993.532 1029.03C979.942 1030.83 966.251 1031.76 952.542 1031.8ZM937.742 1019.1C937.948 1020.3 938.556 1021.39 939.464 1022.2C940.372 1023.01 941.528 1023.48 942.742 1023.55C956.492 1024.31 976.382 1023.26 993.402 1020.88C1015.29 1017.88 1022.97 1014 1024.51 1012.45C1021.75 1001.9 1018.57 974.401 1014.78 928.451C1014.77 927.74 1014.65 927.036 1014.43 926.361C1014.02 925.962 1013.52 925.67 1012.97 925.511C1012.42 925.353 1011.84 925.332 1011.28 925.451C999.472 927.271 989.012 928.171 977.932 929.131C966.852 930.091 955.262 931.131 942.002 933.131C939.68 933.432 937.343 933.612 935.002 933.671C928.292 933.971 924.892 934.441 924.922 936.161C925.092 945.221 926.922 959.271 928.322 970.571C928.742 973.901 929.142 977.011 929.452 979.691C930.494 986.85 931.966 993.939 933.862 1000.92C935.312 1006.86 936.812 1013.01 937.792 1019.1H937.742Z" fill="white"/>
<path d="M1125.07 1007.52C1123.97 1007.52 1122.87 1007.52 1121.77 1007.45C1103.45 1006.65 1101.06 1002.32 1098.9 990.151C1098.52 988.001 1098.09 985.561 1097.44 982.801C1095.7 975.481 1094.97 964.691 1094.21 953.261C1093.56 943.651 1092.89 933.711 1091.59 926.061C1091.33 924.549 1091.38 923 1091.75 921.509C1092.11 920.018 1092.77 918.616 1093.69 917.391C1094.55 916.238 1095.65 915.277 1096.9 914.567C1098.15 913.858 1099.54 913.417 1100.97 913.271C1113.32 912.011 1124.53 910.391 1135.38 908.831C1148.47 906.941 1162.01 904.991 1177.72 903.631C1180.1 903.421 1183.37 903.151 1186.44 904.751C1190.56 906.911 1193.27 911.671 1193.71 917.501C1194.87 932.781 1194.93 946.861 1194.99 960.501C1195.05 972.601 1195.1 984.021 1195.86 996.071C1195.93 997.099 1195.59 998.112 1194.93 998.9C1194.27 999.688 1193.33 1000.19 1192.3 1000.3L1160.13 1003.74C1156.48 1004.14 1152.83 1004.66 1148.95 1005.21C1141.11 1006.36 1133.03 1007.52 1125.07 1007.52ZM1099.47 924.741C1100.85 932.741 1101.53 942.941 1102.19 952.741C1102.93 963.831 1103.64 974.301 1105.19 980.971C1105.9 983.971 1106.35 986.521 1106.75 988.771C1107.56 993.341 1108.05 995.771 1109.39 996.951C1111.02 998.391 1114.94 999.161 1122.09 999.471C1130.37 999.831 1139.22 998.561 1147.79 997.331C1151.56 996.791 1155.45 996.241 1159.24 995.831L1187.66 992.741C1187.09 981.871 1187.04 971.471 1186.99 960.531C1186.93 947.051 1186.87 933.111 1185.74 918.111C1185.52 915.191 1184.31 912.681 1182.74 911.851C1181.74 911.331 1179.97 911.481 1178.42 911.611C1162.94 912.951 1149.51 914.881 1136.53 916.761C1125.6 918.331 1114.3 919.961 1101.79 921.241C1101.45 921.28 1101.12 921.389 1100.83 921.561C1100.53 921.733 1100.27 921.964 1100.07 922.241C1099.81 922.59 1099.62 922.989 1099.52 923.414C1099.42 923.839 1099.4 924.281 1099.48 924.711L1099.47 924.741Z" fill="white"/>
<path d="M968.411 1175.24C963.041 1175.24 959.161 1174.48 956.781 1172.69C956.036 1172.16 955.41 1171.48 954.942 1170.69C954.473 1169.9 954.174 1169.03 954.062 1168.12C952.792 1157.55 948.521 1133.52 946.231 1120.61L945.711 1117.61C943.641 1105.95 941.211 1094.19 938.471 1082.66C938.218 1081.6 938.193 1080.5 938.397 1079.43C938.601 1078.36 939.031 1077.34 939.656 1076.45C940.282 1075.56 941.09 1074.81 942.027 1074.25C942.964 1073.69 944.009 1073.34 945.091 1073.22C973.471 1070.01 1002.26 1067.22 1030.66 1064.85C1032.46 1064.7 1034.02 1065.59 1035.32 1067.49C1041.84 1077.01 1062.26 1144.94 1053.87 1162.21C1053.25 1163.7 1052.22 1164.98 1050.92 1165.93C1049.61 1166.87 1048.07 1167.44 1046.46 1167.57L1042.3 1167.84C1030.45 1168.61 1008.38 1170.03 999.051 1171.54L996.322 1171.99C984.592 1173.99 975.281 1175.24 968.411 1175.24ZM961.921 1166.5C964.141 1167.63 971.841 1168 995.021 1164.15L997.791 1163.69C1007.5 1162.12 1028.97 1160.69 1041.79 1159.91L1045.94 1159.64C1046.28 1159.64 1046.64 1158.85 1046.79 1158.53C1049.4 1152.47 1047.57 1135.1 1041.89 1112.07C1037.3 1093.46 1031.76 1077.66 1029.32 1073.07C1001.75 1075.36 973.852 1078.07 946.322 1081.21C949.062 1092.79 951.502 1104.59 953.572 1116.29L954.101 1119.29C956.371 1131.94 960.541 1155.42 961.921 1166.5Z" fill="white"/>
<path d="M507.302 550.661C506.241 550.661 505.224 550.239 504.473 549.489C503.723 548.739 503.302 547.722 503.302 546.661C503.302 545.6 503.723 544.582 504.473 543.832C505.224 543.082 506.241 542.661 507.302 542.661C526.972 542.471 539.862 522.171 544.492 513.451C549.202 504.571 551.492 497.291 551.672 490.531C551.992 479.291 546.162 467.381 536.102 458.691C524.172 448.381 507.882 443.931 493.592 447.061C478.672 450.341 466.042 462.421 462.872 476.451C462.77 476.977 462.564 477.477 462.265 477.922C461.967 478.367 461.582 478.747 461.133 479.04C460.685 479.334 460.182 479.534 459.655 479.629C459.128 479.724 458.587 479.712 458.064 479.594C457.541 479.477 457.048 479.255 456.612 478.942C456.177 478.63 455.809 478.233 455.53 477.776C455.251 477.319 455.066 476.81 454.988 476.28C454.909 475.75 454.938 475.209 455.072 474.691C458.952 457.471 473.742 443.231 491.872 439.251C508.582 435.591 527.532 440.711 541.332 452.631C553.192 462.881 560.052 477.141 559.672 490.761C559.442 498.761 556.862 507.191 551.562 517.201C546.262 527.211 531.342 550.431 507.372 550.661H507.302Z" fill="black"/>
<path d="M657.471 534.33C653.633 534.321 649.803 533.987 646.021 533.33C645.503 533.243 645.008 533.053 644.563 532.774C644.118 532.494 643.732 532.13 643.428 531.701C643.124 531.273 642.907 530.788 642.79 530.276C642.673 529.764 642.658 529.234 642.746 528.715C642.924 527.669 643.51 526.736 644.376 526.122C644.804 525.818 645.288 525.601 645.801 525.484C646.313 525.367 646.843 525.353 647.361 525.44C671.871 529.631 701.821 519.91 712.361 480.05C716.521 464.35 706.361 448.37 695.191 440.18C683.131 431.34 666.361 428.35 650.321 432.18C638.191 435.08 628.531 441.36 623.111 449.84C617.111 459.22 617.171 471.59 623.221 479.26C623.884 480.093 624.189 481.155 624.069 482.213C623.949 483.271 623.414 484.237 622.581 484.9C621.749 485.564 620.687 485.869 619.629 485.749C618.571 485.629 617.604 485.093 616.941 484.26C608.721 473.84 608.481 457.93 616.371 445.58C622.911 435.33 634.301 427.83 648.461 424.44C666.751 420.07 685.991 423.55 699.921 433.75C713.221 443.51 725.211 462.8 720.101 482.12C709.861 521.03 682.051 534.33 657.471 534.33Z" fill="black"/>
<path d="M822.132 522.74C815.645 522.795 809.219 521.483 803.272 518.89C802.303 518.458 801.545 517.658 801.165 516.667C800.785 515.676 800.815 514.574 801.247 513.605C801.679 512.636 802.479 511.878 803.47 511.498C804.461 511.118 805.563 511.148 806.532 511.58C821.062 518.07 840.362 514.47 855.722 502.43C866.512 493.97 873.822 483 876.302 471.54C877.504 465.528 877.302 459.319 875.712 453.397C874.121 447.475 871.185 442.001 867.132 437.4C856.862 425.74 831.862 417.14 812.462 423.52C796.782 428.68 787.462 442.89 785.612 464.62C785.566 465.145 785.417 465.657 785.174 466.124C784.93 466.592 784.597 467.007 784.193 467.346C783.789 467.685 783.322 467.941 782.819 468.1C782.316 468.258 781.787 468.316 781.262 468.27C780.737 468.224 780.226 468.075 779.758 467.832C779.29 467.588 778.875 467.255 778.536 466.851C778.197 466.447 777.941 465.98 777.782 465.477C777.624 464.975 777.566 464.445 777.612 463.92C780.372 432.13 796.712 420.27 809.932 415.92C832.602 408.45 860.932 418.25 873.102 432.08C878.021 437.598 881.579 444.192 883.489 451.333C885.399 458.474 885.609 465.963 884.102 473.2C881.222 486.48 872.892 499.09 860.642 508.69C848.962 517.87 835.132 522.74 822.132 522.74Z" fill="black"/>
<path d="M977.412 517.471C973.933 517.487 970.462 517.152 967.052 516.471C966.012 516.257 965.1 515.639 964.516 514.753C963.931 513.867 963.723 512.785 963.937 511.746C964.15 510.706 964.768 509.794 965.654 509.21C966.54 508.625 967.622 508.417 968.662 508.631C991.092 513.241 1015.85 499.561 1023.88 478.121C1031.91 456.681 1027.24 429.431 1002.69 419.051C982.412 410.461 966.422 417.511 958.692 422.481C948.072 429.301 942.972 438.291 942.862 442.221C942.833 443.262 942.399 444.252 941.652 444.978C940.905 445.705 939.904 446.111 938.862 446.111H938.752C937.692 446.082 936.688 445.634 935.959 444.865C935.229 444.097 934.835 443.07 934.862 442.011C935.092 433.791 943.112 423.011 954.362 415.761C963.362 409.941 982.132 401.671 1005.8 411.691C1012.31 414.33 1018.13 418.403 1022.84 423.606C1027.55 428.809 1031.03 435.008 1033.01 441.741C1036.74 453.891 1036.14 468.151 1031.37 480.881C1023.25 502.581 1000.39 517.471 977.412 517.471Z" fill="black"/>
<path d="M1139.47 508.51C1134.49 508.528 1129.53 507.906 1124.71 506.66C1124.19 506.546 1123.69 506.326 1123.25 506.015C1122.81 505.703 1122.44 505.307 1122.16 504.848C1121.88 504.39 1121.69 503.879 1121.61 503.347C1121.53 502.815 1121.56 502.273 1121.69 501.752C1121.83 501.231 1122.06 500.742 1122.39 500.315C1122.72 499.889 1123.13 499.533 1123.6 499.268C1124.07 499.004 1124.59 498.837 1125.12 498.777C1125.65 498.717 1126.2 498.766 1126.71 498.92C1142.18 502.92 1160.18 499.25 1174.84 489C1188.47 479.48 1200.84 461.51 1197.84 442.85C1194.54 422.6 1174.18 405.34 1153.38 405.16C1136.84 405.01 1125.96 408.16 1119.02 415.05C1113.02 420.99 1110.02 430.05 1110.02 442.05C1110.02 443.111 1109.6 444.129 1108.85 444.879C1108.1 445.629 1107.08 446.05 1106.02 446.05C1104.96 446.05 1103.94 445.629 1103.19 444.879C1102.44 444.129 1102.02 443.111 1102.02 442.05C1102.02 427.85 1105.85 416.85 1113.41 409.35C1124.66 398.2 1141.64 397.05 1153.48 397.14C1178.36 397.35 1201.81 417.27 1205.77 441.54C1208.93 460.97 1198.61 482.16 1179.47 495.54C1167.77 503.831 1153.81 508.355 1139.47 508.51Z" fill="black"/>
<path d="M1317.05 502.36C1309.26 502.36 1302.21 500.78 1297.55 497.7C1297.11 497.41 1296.74 497.037 1296.44 496.601C1296.15 496.165 1295.95 495.676 1295.84 495.161C1295.74 494.646 1295.73 494.116 1295.83 493.6C1295.94 493.084 1296.14 492.593 1296.43 492.155C1296.72 491.717 1297.09 491.341 1297.53 491.047C1297.96 490.754 1298.45 490.549 1298.97 490.445C1299.48 490.34 1300.01 490.338 1300.53 490.439C1301.04 490.539 1301.53 490.74 1301.97 491.03C1307.21 494.5 1319.32 496.03 1332.32 492.12C1339.42 490.086 1345.98 486.503 1351.53 481.628C1357.07 476.754 1361.47 470.709 1364.4 463.93C1369.46 452.25 1369.78 440.19 1365.27 430.85C1360.97 421.93 1352.59 414.16 1341.67 408.97C1329.67 403.27 1307.35 403.04 1292.19 412.62C1281.19 419.62 1275.6 430.32 1275.6 444.55C1275.6 445.611 1275.18 446.629 1274.43 447.379C1273.68 448.129 1272.66 448.55 1271.6 448.55C1270.54 448.55 1269.52 448.129 1268.77 447.379C1268.02 446.629 1267.6 445.611 1267.6 444.55C1267.6 423.18 1278.6 411.71 1287.92 405.86C1305.61 394.68 1330.92 394.99 1345.1 401.74C1357.67 407.74 1367.39 416.82 1372.48 427.37C1378 438.81 1377.73 453.3 1371.74 467.11C1368.37 474.975 1363.28 481.989 1356.86 487.642C1350.43 493.295 1342.83 497.445 1334.6 499.79C1328.9 501.48 1322.99 502.345 1317.05 502.36Z" fill="black"/>
<path d="M1092.15 1030.31C1085.46 1043.62 1087.49 1059.69 1089.73 1074.55C1104.53 1172.6 1121.02 1270.35 1139.19 1367.79C1144.1 1394.06 1149.19 1420.45 1158.19 1445.5C1161.68 1455.19 1165.96 1464.96 1173.38 1471.79C1186.38 1483.79 1205.44 1483.9 1222.71 1483.42L1531.2 1474.8C1553.99 1474.16 1577.89 1473.2 1597.52 1461.04C1628.77 1441.67 1639.74 1400.54 1647.23 1363.28C1666.23 1268.98 1680.23 1173.52 1687 1077.4C1688.75 1052.47 1689.48 1025.4 1675.94 1004.84C1658.87 978.92 1625.57 972.41 1595.73 968.9C1557.99 964.45 1520.09 961.33 1482.14 959.8C1443.92 958.26 1405.63 958.34 1367.43 960.33C1330.14 962.27 1293.36 967.33 1256.26 971.33C1234.26 973.73 1212.26 974.59 1190.61 979.88C1174.12 983.88 1157.71 988.76 1141.98 995.34C1127.14 1001.54 1110.21 1008.67 1098.83 1020.85C1096.16 1023.67 1093.91 1026.85 1092.15 1030.31Z" fill="#FF5400"/>
<path d="M1255.86 1081.64C1045.51 1292.21 1385.86 1593.64 1571.86 1352.37C1733.19 1162.63 1458.54 878.79 1255.86 1081.64Z" fill="white"/>
<path d="M1408.86 1241.48C1405.38 1241.51 1401.98 1240.46 1399.12 1238.48C1395.66 1236.1 1393.64 1232.56 1391.86 1229.48C1391.41 1228.68 1390.95 1227.88 1390.47 1227.1C1388.47 1223.79 1381.3 1213.69 1373.03 1201.98C1356.52 1178.61 1333.91 1146.59 1328.26 1135.42C1327.84 1134.48 1327.79 1133.42 1328.14 1132.45C1328.48 1131.48 1329.18 1130.67 1330.1 1130.21C1331.02 1129.74 1332.08 1129.65 1333.07 1129.95C1334.05 1130.25 1334.89 1130.91 1335.39 1131.81C1340.78 1142.46 1363.2 1174.19 1379.56 1197.37C1388.25 1209.67 1395.11 1219.37 1397.28 1222.9C1397.81 1223.76 1398.28 1224.64 1398.81 1225.52C1400.3 1228.13 1401.71 1230.6 1403.65 1231.93C1411.3 1237.19 1422.65 1227.93 1427.17 1223.63C1431.69 1219.33 1437.96 1213.02 1445.32 1205.55C1458.32 1192.36 1473.03 1177.41 1483.86 1168.24C1484.67 1167.56 1485.72 1167.22 1486.78 1167.31C1487.84 1167.4 1488.82 1167.9 1489.5 1168.71C1490.19 1169.52 1490.52 1170.57 1490.43 1171.63C1490.35 1172.69 1489.84 1173.67 1489.03 1174.35C1478.47 1183.28 1463.25 1198.74 1451.03 1211.16C1443.61 1218.69 1437.2 1225.16 1432.66 1229.46C1424.17 1237.39 1416.02 1241.48 1408.86 1241.48Z" fill="black"/>
<path d="M1404.59 1220.28C1395.59 1221.85 1388.59 1231.38 1389.06 1240.97C1389.53 1250.56 1396.89 1259.17 1405.85 1261.14C1414.81 1263.11 1424.6 1258.65 1429.77 1250.72C1431.99 1247.33 1434.07 1243.25 1433.46 1239.18C1429.76 1214.74 1404.59 1220.28 1404.59 1220.28Z" fill="black"/>
<path d="M1410.12 1265.6C1408.4 1265.6 1406.68 1265.42 1404.99 1265.05C1394.14 1262.66 1385.57 1252.38 1385.06 1241.15C1384.52 1229.4 1392.94 1218.29 1403.83 1216.35C1405.15 1216.08 1417.38 1213.79 1426.95 1220.35C1432.66 1224.28 1436.18 1230.41 1437.41 1238.57C1438.27 1244.22 1435.41 1249.45 1433.12 1252.9C1430.62 1256.74 1427.21 1259.9 1423.2 1262.12C1419.19 1264.33 1414.7 1265.53 1410.12 1265.6ZM1410.52 1223.75C1408.82 1223.74 1407.12 1223.89 1405.44 1224.19H1405.28C1398.28 1225.41 1392.7 1232.99 1393.05 1240.76C1393.4 1248.37 1399.4 1255.6 1406.71 1257.21C1414.02 1258.82 1422.04 1255.21 1426.42 1248.51C1427.96 1246.16 1429.95 1242.69 1429.5 1239.75C1428.61 1233.88 1426.24 1229.57 1422.5 1226.95C1418.76 1224.33 1414 1223.74 1410.52 1223.74V1223.75Z" fill="black"/>
<path d="M1411.3 1078.34C1410.3 1078.34 1409.33 1077.97 1408.59 1077.3C1407.85 1076.63 1407.39 1075.7 1407.3 1074.7C1406.86 1069.99 1404.74 1043.79 1404.74 1040.88C1404.74 1039.82 1405.16 1038.8 1405.91 1038.05C1406.66 1037.3 1407.68 1036.88 1408.74 1036.88C1409.8 1036.88 1410.82 1037.3 1411.57 1038.05C1412.32 1038.8 1412.74 1039.82 1412.74 1040.88C1412.74 1043.21 1414.74 1068.38 1415.26 1073.97C1415.36 1075.03 1415.03 1076.08 1414.36 1076.89C1413.68 1077.71 1412.71 1078.22 1411.65 1078.32L1411.3 1078.34Z" fill="#1B5EC9"/>
<path d="M1419.46 1417.57C1418.53 1417.57 1417.62 1417.24 1416.9 1416.64C1416.18 1416.04 1415.7 1415.2 1415.53 1414.28C1415.12 1412.06 1415.09 1406.81 1415.08 1398.42C1415.08 1392.23 1415.08 1384.53 1414.7 1382.61C1414.51 1381.57 1414.73 1380.49 1415.33 1379.61C1415.93 1378.74 1416.86 1378.14 1417.9 1377.94C1418.95 1377.75 1420.02 1377.97 1420.9 1378.57C1421.78 1379.17 1422.38 1380.1 1422.57 1381.14C1423.03 1383.6 1423.07 1389.31 1423.08 1398.41C1423.08 1404.12 1423.08 1411.22 1423.4 1412.85C1423.59 1413.89 1423.36 1414.97 1422.75 1415.84C1422.15 1416.71 1421.23 1417.31 1420.18 1417.5C1419.94 1417.54 1419.7 1417.57 1419.46 1417.57Z" fill="#1B5EC9"/>
<path d="M1573.94 1237.83C1570.24 1237.87 1566.54 1237.73 1562.86 1237.39C1561.8 1237.28 1560.83 1236.75 1560.16 1235.92C1559.49 1235.09 1559.17 1234.03 1559.29 1232.97C1559.4 1231.9 1559.93 1230.93 1560.76 1230.26C1561.59 1229.59 1562.65 1229.28 1563.71 1229.39C1569.17 1229.97 1577.49 1229.79 1585.53 1229.61C1589.94 1229.51 1594.12 1229.42 1597.86 1229.44C1598.92 1229.44 1599.94 1229.86 1600.69 1230.61C1601.44 1231.36 1601.86 1232.38 1601.86 1233.44C1601.86 1234.5 1601.44 1235.52 1600.69 1236.27C1599.94 1237.02 1598.92 1237.44 1597.86 1237.44C1594.25 1237.44 1590.12 1237.51 1585.77 1237.61C1581.74 1237.74 1577.71 1237.83 1573.94 1237.83Z" fill="#1B5EC9"/>
<path d="M1240.09 1245.42C1234.32 1245.42 1228.22 1245.23 1223.77 1245.08C1221.39 1245 1219.5 1244.94 1218.57 1244.94C1217.51 1244.94 1216.49 1244.52 1215.74 1243.77C1214.99 1243.02 1214.57 1242 1214.57 1240.94C1214.57 1239.88 1214.99 1238.86 1215.74 1238.11C1216.49 1237.36 1217.51 1236.94 1218.57 1236.94C1219.63 1236.94 1221.48 1237 1224.03 1237.09C1231.3 1237.32 1244.81 1237.76 1251.28 1236.97C1252.34 1236.84 1253.4 1237.13 1254.24 1237.78C1255.07 1238.43 1255.62 1239.39 1255.75 1240.44C1255.88 1241.49 1255.59 1242.56 1254.94 1243.39C1254.29 1244.23 1253.34 1244.78 1252.28 1244.91C1248.23 1245.31 1244.16 1245.48 1240.09 1245.42Z" fill="#1B5EC9"/>
<path d="M1269.99 1162.67C1269.42 1162.67 1268.86 1162.55 1268.34 1162.31L1254.23 1155.89C1253.75 1155.67 1253.32 1155.36 1252.96 1154.98C1252.61 1154.59 1252.33 1154.14 1252.14 1153.65C1251.96 1153.16 1251.87 1152.64 1251.89 1152.11C1251.91 1151.58 1252.03 1151.07 1252.25 1150.59C1252.47 1150.11 1252.78 1149.68 1253.16 1149.32C1253.55 1148.97 1254 1148.69 1254.49 1148.5C1254.98 1148.32 1255.51 1148.23 1256.03 1148.25C1256.56 1148.27 1257.07 1148.39 1257.55 1148.61L1271.65 1155.03C1272.48 1155.41 1273.16 1156.06 1273.57 1156.88C1273.98 1157.69 1274.1 1158.63 1273.9 1159.52C1273.71 1160.41 1273.21 1161.21 1272.5 1161.79C1271.79 1162.36 1270.9 1162.67 1269.99 1162.67Z" fill="#1B5EC9"/>
<path d="M1331.86 1092.96C1331.27 1092.96 1330.68 1092.83 1330.14 1092.58C1329.6 1092.32 1329.13 1091.95 1328.75 1091.49C1325.29 1087.23 1321.22 1079.02 1321.05 1078.67C1320.82 1078.2 1320.68 1077.69 1320.65 1077.16C1320.61 1076.64 1320.68 1076.11 1320.85 1075.61C1321.02 1075.12 1321.29 1074.66 1321.63 1074.26C1321.98 1073.87 1322.4 1073.54 1322.87 1073.31C1323.34 1073.08 1323.86 1072.94 1324.38 1072.91C1324.9 1072.87 1325.43 1072.94 1325.93 1073.11C1326.43 1073.28 1326.89 1073.54 1327.28 1073.89C1327.68 1074.24 1328 1074.66 1328.23 1075.13C1329.29 1077.27 1332.56 1083.49 1334.96 1086.44C1335.44 1087.03 1335.74 1087.74 1335.83 1088.49C1335.92 1089.24 1335.79 1090 1335.47 1090.68C1335.14 1091.36 1334.63 1091.94 1333.99 1092.34C1333.36 1092.74 1332.62 1092.96 1331.86 1092.96Z" fill="#1B5EC9"/>
<path d="M1273.65 1342.17C1272.78 1342.16 1271.93 1341.87 1271.24 1341.33C1270.55 1340.8 1270.06 1340.05 1269.83 1339.21C1269.6 1338.37 1269.66 1337.47 1269.99 1336.66C1270.32 1335.85 1270.9 1335.18 1271.65 1334.73L1285.4 1326.55C1285.85 1326.26 1286.36 1326.06 1286.89 1325.97C1287.42 1325.88 1287.96 1325.9 1288.48 1326.02C1289 1326.14 1289.5 1326.37 1289.93 1326.69C1290.36 1327.01 1290.73 1327.41 1291 1327.87C1291.28 1328.33 1291.45 1328.84 1291.53 1329.37C1291.6 1329.91 1291.56 1330.45 1291.42 1330.96C1291.28 1331.48 1291.04 1331.97 1290.71 1332.39C1290.38 1332.81 1289.96 1333.16 1289.49 1333.42L1275.75 1341.6C1275.12 1341.98 1274.39 1342.18 1273.65 1342.17Z" fill="#1B5EC9"/>
<path d="M1334.49 1394.13C1333.75 1394.13 1333.02 1393.93 1332.39 1393.53C1331.49 1392.97 1330.85 1392.08 1330.6 1391.05C1330.36 1390.02 1330.54 1388.93 1331.09 1388.03C1331.27 1387.73 1335.66 1380.63 1339.15 1375.96C1339.79 1375.11 1340.73 1374.55 1341.78 1374.4C1342.83 1374.24 1343.9 1374.52 1344.75 1375.15C1345.6 1375.79 1346.16 1376.73 1346.32 1377.78C1346.47 1378.83 1346.2 1379.9 1345.56 1380.75C1342.27 1385.14 1337.94 1392.16 1337.89 1392.23C1337.53 1392.81 1337.03 1393.29 1336.44 1393.62C1335.84 1393.95 1335.17 1394.13 1334.49 1394.13Z" fill="#1B5EC9"/>
<path d="M1509.05 1371.16C1508.51 1371.16 1507.98 1371.05 1507.48 1370.84C1506.98 1370.62 1506.53 1370.31 1506.16 1369.92L1495.86 1359.06C1495.14 1358.29 1494.75 1357.27 1494.78 1356.21C1494.81 1355.16 1495.26 1354.16 1496.02 1353.43C1496.79 1352.7 1497.8 1352.31 1498.86 1352.33C1499.91 1352.35 1500.92 1352.78 1501.65 1353.54L1512 1364.4C1512.54 1364.97 1512.9 1365.68 1513.04 1366.45C1513.18 1367.22 1513.09 1368.02 1512.78 1368.74C1512.47 1369.46 1511.96 1370.07 1511.31 1370.5C1510.65 1370.93 1509.88 1371.16 1509.1 1371.16H1509.05Z" fill="black"/>
<path d="M1563.28 1314.46C1562.64 1314.46 1562 1314.3 1561.43 1314C1559.06 1312.5 1556.79 1310.83 1554.66 1309C1552.8 1307.53 1549.99 1305.29 1549.16 1304.86C1548.7 1304.62 1548.28 1304.28 1547.95 1303.88C1547.61 1303.48 1547.36 1303.01 1547.2 1302.51C1546.88 1301.49 1546.98 1300.4 1547.48 1299.46C1547.97 1298.52 1548.82 1297.81 1549.83 1297.49C1550.84 1297.18 1551.94 1297.28 1552.88 1297.77C1555.26 1299.27 1557.51 1300.94 1559.64 1302.77C1561.5 1304.25 1564.31 1306.49 1565.14 1306.92C1565.94 1307.33 1566.57 1308 1566.94 1308.82C1567.31 1309.64 1567.4 1310.56 1567.18 1311.43C1566.97 1312.3 1566.47 1313.07 1565.76 1313.62C1565.05 1314.18 1564.18 1314.47 1563.28 1314.47V1314.46Z" fill="#1B5EC9"/>
<path d="M1550.49 1161.89C1549.58 1161.89 1548.69 1161.58 1547.98 1161C1547.26 1160.43 1546.77 1159.62 1546.58 1158.73C1546.39 1157.83 1546.51 1156.9 1546.92 1156.08C1547.33 1155.27 1548.02 1154.62 1548.85 1154.24L1560.39 1149.06C1560.87 1148.85 1561.39 1148.73 1561.91 1148.71C1562.44 1148.7 1562.96 1148.78 1563.45 1148.97C1563.94 1149.16 1564.39 1149.44 1564.78 1149.8C1565.16 1150.16 1565.47 1150.59 1565.68 1151.07C1565.9 1151.55 1566.02 1152.07 1566.03 1152.59C1566.05 1153.12 1565.96 1153.64 1565.77 1154.13C1565.59 1154.62 1565.3 1155.07 1564.94 1155.46C1564.58 1155.84 1564.15 1156.15 1563.67 1156.36L1552.12 1161.54C1551.61 1161.77 1551.05 1161.89 1550.49 1161.89Z" fill="#1B5EC9"/>
<path d="M1498.7 1097.46C1497.99 1097.46 1497.28 1097.27 1496.67 1096.9C1496.05 1096.54 1495.54 1096.01 1495.2 1095.38C1494.85 1094.75 1494.68 1094.04 1494.71 1093.33C1494.73 1092.61 1494.95 1091.91 1495.33 1091.31L1501.04 1082.31C1501.32 1081.85 1501.68 1081.46 1502.11 1081.14C1502.54 1080.83 1503.03 1080.61 1503.55 1080.48C1504.07 1080.36 1504.61 1080.35 1505.13 1080.43C1505.66 1080.52 1506.16 1080.72 1506.61 1081C1507.06 1081.29 1507.45 1081.66 1507.75 1082.1C1508.06 1082.54 1508.27 1083.03 1508.38 1083.55C1508.49 1084.07 1508.49 1084.61 1508.39 1085.14C1508.29 1085.66 1508.09 1086.16 1507.79 1086.6L1502.08 1095.6C1501.72 1096.17 1501.22 1096.64 1500.63 1096.96C1500.04 1097.29 1499.38 1097.46 1498.7 1097.46Z" fill="#1B5EC9"/>
<path d="M1349.55 984.27C1341.55 984.27 1333.48 982.67 1327.76 974.62C1320.43 964.3 1315.67 951.81 1311.46 940.79C1305.58 925.405 1301.58 909.365 1299.54 893.02C1298.81 887.08 1298.36 880.24 1302.25 874.25C1307.07 866.83 1316.52 863.8 1326.01 861.63C1374.61 850.651 1424.71 847.983 1474.19 853.74C1481.73 854.63 1489.63 855.85 1496.03 860.05C1505.96 866.58 1510.03 878.63 1508.15 895.88C1505.49 919.944 1498.01 943.224 1486.15 964.33C1484.3 967.64 1482 971.33 1477.97 973.67C1473.94 976.01 1469.18 976.3 1465.37 976.56L1357.77 983.9C1355.06 984.09 1352.31 984.27 1349.55 984.27ZM1307.48 892.05C1309.44 907.753 1313.28 923.162 1318.94 937.94C1322.94 948.51 1327.54 960.49 1334.28 969.94C1339.02 976.62 1346.09 976.64 1357.18 975.88L1464.77 968.54C1467.93 968.32 1471.51 968.08 1473.94 966.68C1476.2 965.39 1477.67 962.97 1479.11 960.4C1490.46 940.226 1497.63 917.974 1500.2 894.97C1501.75 880.75 1498.95 871.5 1491.64 866.7C1486.7 863.45 1479.85 862.42 1473.25 861.64C1424.68 855.992 1375.49 858.612 1327.79 869.39C1319.94 871.18 1312.22 873.54 1308.96 878.57C1306.53 882.3 1306.9 887.25 1307.48 892.01V892.05Z" fill="black"/>
<path d="M1207.41 1523.88C1205.27 1523.96 1203.14 1523.44 1201.28 1522.36C1199.43 1521.28 1197.91 1519.69 1196.92 1517.79C1195.82 1515.19 1195.44 1512.34 1195.82 1509.54C1197.4 1488.28 1211.76 1469.44 1220.19 1460.09C1220.54 1459.7 1220.97 1459.38 1221.44 1459.16C1221.92 1458.93 1222.43 1458.8 1222.96 1458.77C1223.48 1458.75 1224.01 1458.82 1224.5 1459C1225 1459.18 1225.45 1459.45 1225.84 1459.8C1226.23 1460.15 1226.55 1460.58 1226.77 1461.05C1227 1461.53 1227.13 1462.04 1227.16 1462.56C1227.18 1463.09 1227.11 1463.61 1226.93 1464.11C1226.76 1464.6 1226.48 1465.06 1226.13 1465.45C1218.39 1474.03 1205.2 1491.25 1203.79 1510.14C1203.58 1511.53 1203.69 1512.94 1204.12 1514.28C1204.83 1515.74 1207.12 1516.16 1208.73 1515.72C1211.25 1515.05 1213.66 1512.92 1215.92 1510.8C1227.99 1499.39 1238.59 1486.53 1247.47 1472.49C1248.65 1470.63 1248.68 1470.03 1248.66 1469.89C1248.32 1468.88 1248.4 1467.79 1248.87 1466.84C1249.34 1465.88 1250.17 1465.16 1251.17 1464.82C1252.18 1464.48 1253.28 1464.55 1254.23 1465.02C1255.18 1465.5 1255.9 1466.32 1256.24 1467.33C1257.63 1471.4 1255.24 1475.16 1254.24 1476.77C1245.01 1491.37 1233.98 1504.76 1221.41 1516.62C1218.41 1519.45 1215.12 1522.31 1210.79 1523.45C1209.69 1523.74 1208.55 1523.89 1207.41 1523.88Z" fill="black"/>
<path d="M1576.37 1517.08H1576.21C1570.75 1517 1566.89 1512.57 1565.04 1510.44C1552.8 1496.37 1543.2 1482.64 1536.15 1461.36C1535.85 1460.36 1535.95 1459.28 1536.43 1458.36C1536.91 1457.43 1537.73 1456.73 1538.72 1456.4C1539.71 1456.07 1540.79 1456.14 1541.73 1456.6C1542.66 1457.05 1543.39 1457.86 1543.74 1458.84C1550.38 1478.84 1559.47 1491.84 1571.08 1505.19C1572.64 1506.99 1574.65 1509.06 1576.33 1509.08C1576.67 1509.1 1577 1509.03 1577.31 1508.9C1577.61 1508.76 1577.88 1508.55 1578.09 1508.29C1579.89 1506.39 1580.98 1501.65 1580.67 1497.01C1579.5 1479.17 1576.59 1472.39 1568.34 1455.41C1567.88 1454.46 1567.81 1453.36 1568.16 1452.35C1568.51 1451.35 1569.24 1450.52 1570.19 1450.06C1571.15 1449.6 1572.25 1449.53 1573.25 1449.88C1574.25 1450.22 1575.08 1450.96 1575.54 1451.91C1583.92 1469.17 1587.37 1476.91 1588.66 1496.49C1589.02 1502.05 1587.96 1509.49 1583.89 1513.8C1582.93 1514.84 1581.77 1515.67 1580.48 1516.23C1579.18 1516.79 1577.78 1517.08 1576.37 1517.08Z" fill="black"/>
<path d="M547.412 770.93C544.873 770.921 542.419 770.011 540.488 768.363C538.556 766.716 537.271 764.436 536.862 761.93C534.062 743.93 520.912 694.72 519.232 689.85C518.902 688.85 518.402 687.73 517.882 686.5C516.032 682.17 513.732 676.78 515.032 671.78C516.842 664.78 523.942 663.52 528.632 662.66C529.422 662.51 530.182 662.38 530.872 662.22C544.722 659.05 558.872 656.22 572.872 653.76C588.692 651 604.802 648.68 620.752 646.87C622.975 646.446 625.276 646.817 627.252 647.92C629.782 649.55 630.562 652.32 630.982 653.8C639.208 683.067 645.746 712.783 650.562 742.8C651.063 745.955 650.308 749.181 648.459 751.787C646.611 754.393 643.815 756.171 640.672 756.74C610.272 762.14 579.352 766.89 548.762 770.86C548.314 770.913 547.863 770.936 547.412 770.93ZM622.802 654.74C622.411 654.749 622.02 654.779 621.632 654.83C605.852 656.62 589.892 658.92 574.222 661.65C560.362 664.07 546.382 666.89 532.662 670.03C531.862 670.21 530.992 670.37 530.092 670.54C526.092 671.26 523.272 671.92 522.782 673.8C522.172 676.16 523.882 680.16 525.252 683.37C525.832 684.73 526.382 686.01 526.802 687.25C528.522 692.25 541.922 742.35 544.802 760.72C544.913 761.407 545.29 762.024 545.851 762.435C546.412 762.847 547.113 763.021 547.802 762.92C578.272 758.98 609.062 754.25 639.342 748.86C640.417 748.663 641.371 748.051 641.999 747.157C642.627 746.263 642.88 745.158 642.702 744.08C637.934 714.366 631.459 684.951 623.312 655.98C623.189 655.558 623.039 655.143 622.862 654.74H622.802Z" fill="white"/>
<path d="M587.792 925.981C578.202 925.981 572.132 923.721 570.252 918.161C568.372 912.601 563.672 889.881 560.112 871.241C552.522 831.431 553.282 828.781 553.602 827.651C555.322 821.651 561.602 820.651 565.372 820.061C566.082 819.941 566.762 819.841 567.372 819.711C574.012 818.281 579.042 817.611 584.372 816.901C588.502 816.341 592.772 815.771 597.952 814.811C611.112 812.351 624.492 810.071 637.702 808.021C641.182 807.481 645.952 806.741 650.372 808.801C656.302 811.551 658.712 817.681 660.442 823.891C667.337 848.674 672.45 873.918 675.742 899.431C675.962 901.151 676.332 904.031 674.692 906.641C672.742 909.731 669.262 910.461 667.392 910.851C661.542 912.071 654.602 913.711 647.252 915.461C621.772 921.491 601.292 925.981 587.792 925.981ZM561.382 829.651C561.382 837.161 574.442 905.511 577.842 915.651C577.842 915.811 579.452 919.731 599.622 917.111C613.212 915.341 630.322 911.281 645.422 907.701C652.822 905.951 659.812 904.291 665.762 903.051C666.513 902.949 667.243 902.726 667.922 902.391C667.952 901.752 667.915 901.112 667.812 900.481C664.574 875.346 659.541 850.476 652.752 826.061C651.532 821.701 650.002 817.471 647.012 816.061C645.012 815.111 642.142 815.441 638.942 815.941C625.812 817.941 612.512 820.251 599.422 822.691C594.042 823.691 589.672 824.281 585.422 824.841C580.252 825.541 575.372 826.191 569.042 827.551C568.252 827.721 567.412 827.851 566.602 827.981C564.632 828.271 561.962 828.741 561.382 829.651Z" fill="white"/>
<path d="M607.401 1078.89C602.831 1078.89 600.751 1078.18 599.541 1077.01C598.111 1075.63 594.761 1072.39 588.541 1031.01C585.471 1010.74 582.861 988.261 582.861 981.871C582.861 969.061 590.251 968.301 596.791 967.631C597.791 967.521 598.881 967.411 600.021 967.261C605.215 966.594 610.401 965.907 615.581 965.201C635.581 962.561 656.311 959.841 676.511 956.031C677.925 955.756 679.381 955.774 680.788 956.083C682.195 956.393 683.523 956.988 684.691 957.831C685.865 958.67 686.857 959.738 687.608 960.97C688.358 962.202 688.853 963.573 689.061 965.001L701.951 1053.6C702.371 1056.39 701.68 1059.24 700.026 1061.53C698.371 1063.82 695.886 1065.37 693.101 1065.85L679.511 1068.26C636.151 1076 616.651 1078.89 607.401 1078.89ZM604.901 1070.86C612.641 1072.06 655.031 1064.5 678.121 1060.39L691.731 1057.97C692.458 1057.84 693.104 1057.43 693.534 1056.83C693.965 1056.23 694.147 1055.48 694.041 1054.75L681.161 966.151C681.109 965.789 680.983 965.443 680.792 965.131C680.602 964.82 680.349 964.551 680.051 964.341C679.765 964.135 679.441 963.989 679.097 963.912C678.754 963.835 678.398 963.827 678.051 963.891C657.621 967.741 636.801 970.481 616.671 973.131C611.505 973.797 606.328 974.484 601.141 975.191C599.921 975.351 598.751 975.471 597.661 975.581C591.281 976.241 590.901 976.281 590.911 981.851C590.861 994.321 600.081 1061.74 604.861 1070.86H604.901Z" fill="white"/>
<path d="M729.911 1188.49C724.971 1169.75 722.001 1150.34 719.371 1133.22C717.851 1123.29 716.421 1113.91 714.741 1105.47C714.157 1102.56 712.504 1099.98 710.108 1098.23C707.712 1096.49 704.748 1095.7 701.801 1096.03C684.051 1098.12 663.031 1101.03 646.931 1103.53C615.581 1108.53 613.311 1110.38 612.101 1111.4C609.931 1113.21 608.101 1114.78 615.641 1164.63C617.351 1175.87 619.321 1187.93 621.061 1197.71C623.901 1213.71 624.311 1214.24 625.061 1215.18C627.701 1218.43 631.721 1218.95 634.661 1218.95C635.501 1218.95 636.261 1218.95 636.871 1218.88C654.741 1217.88 669.081 1214.68 684.271 1211.32C695.801 1208.77 707.721 1206.13 721.371 1204.53C723.168 1204.42 724.917 1203.91 726.491 1203.04C729.341 1201.31 732.251 1197.38 729.911 1188.49ZM722.341 1196.21C721.731 1196.42 721.095 1196.55 720.451 1196.59C706.451 1198.24 694.271 1200.92 682.551 1203.51C667.691 1206.8 653.651 1209.9 636.421 1210.89C635.471 1210.89 632.811 1211.1 631.651 1210.43C629.061 1200.77 617.651 1129.32 618.131 1117.24C626.131 1114.52 664.611 1108.46 702.731 1103.97C703.684 1103.86 704.643 1104.11 705.415 1104.68C706.188 1105.25 706.715 1106.09 706.891 1107.03C708.541 1115.3 709.961 1124.59 711.471 1134.43C714.121 1151.75 717.121 1171.38 722.171 1190.53C723.241 1194.6 722.631 1196.03 722.341 1196.21Z" fill="white"/>
<path d="M725.532 741.74C722.276 741.732 719.135 740.537 716.696 738.38C714.257 736.223 712.688 733.251 712.282 730.02C708.732 702.17 701.832 663.33 697.912 653.02C695.642 647.02 695.622 642.35 697.852 638.69C701.522 632.69 709.692 631.69 718.332 630.75C719.412 630.63 722.172 630.24 725.982 629.7C801.782 618.97 808.542 621.2 810.652 626.16C815.962 638.57 820.782 680.16 824.382 714.99C824.692 717.92 825.252 723.38 821.812 727.27C818.972 730.48 814.812 731.11 812.052 731.53C797.052 733.81 780.672 735.53 764.842 737.26C752.352 738.59 739.442 739.97 727.342 741.6C726.742 741.686 726.138 741.733 725.532 741.74ZM720.212 729.01C720.303 729.721 720.534 730.406 720.891 731.028C721.248 731.649 721.724 732.194 722.292 732.63C722.854 733.065 723.498 733.383 724.185 733.565C724.872 733.747 725.588 733.79 726.292 733.69C738.502 732.05 751.472 730.69 764.012 729.32C779.762 727.64 796.012 725.9 810.872 723.64C812.482 723.4 814.872 723.03 815.872 721.99C816.982 720.73 816.652 717.55 816.472 715.84C814.642 698.1 809.152 645.05 803.772 630.41C799.322 629.31 781.972 629.88 727.152 637.64C723.152 638.21 720.482 638.58 719.302 638.72C713.232 639.4 706.372 640.18 704.732 642.87C703.682 644.61 704.532 647.81 705.442 650.19C710.132 662.51 717.062 703.88 720.262 729.01H720.212Z" fill="white"/>
<path d="M978.211 618.37C977.431 614.59 974.101 614.67 966.051 614.85C961.501 614.96 955.051 615.23 946.731 615.66C931.821 616.44 914.351 617.57 903.901 618.24C899.521 618.53 896.381 618.73 895.211 618.79C894.901 618.79 894.081 618.79 893.351 618.71C888.701 618.42 880.041 617.89 874.931 623.66C871.691 627.32 870.681 632.66 871.931 639.49C873.181 646.32 874.011 652.28 874.931 658.7C875.601 663.49 876.291 668.45 877.161 673.7C877.861 677.96 878.721 684.7 879.631 691.86C883.821 724.79 884.961 728.86 887.631 730.86C888.941 731.86 890.771 732.23 893.631 732.23C896.869 732.15 900.1 731.899 903.311 731.48C904.311 731.36 905.171 731.27 905.641 731.24C929.141 729.77 952.861 727.24 976.141 723.85C978.351 723.52 982.461 722.92 984.871 719.57C986.641 717.12 986.701 714.18 986.741 712.43C987.424 680.857 984.562 649.306 978.211 618.37ZM978.721 712.19C978.77 713.085 978.648 713.981 978.361 714.83C977.931 715.44 975.691 715.77 974.951 715.83C951.891 719.24 928.401 721.7 905.121 723.15C904.511 723.15 903.631 723.29 902.401 723.43C899.188 723.85 895.952 724.08 892.711 724.12C891.171 719.12 888.931 701.59 887.551 690.77C886.631 683.54 885.771 676.72 885.041 672.32C884.191 667.17 883.501 662.26 882.841 657.51C881.971 651.29 881.081 644.85 879.841 637.97C879.301 634.97 879.051 631.03 880.951 628.89C883.471 626.04 889.601 626.41 892.891 626.62C893.812 626.697 894.737 626.724 895.661 626.7C896.851 626.64 900.021 626.43 904.451 626.15C918.891 625.21 960.271 622.55 970.971 622.71C976.792 652.181 979.391 682.197 978.721 712.23V712.19Z" fill="white"/>
<path d="M1067.49 711.74C1065.59 711.791 1063.71 711.376 1062 710.53C1056.78 707.79 1056 701.53 1055.57 698.45L1047.57 637.37C1047.43 636.3 1047.24 635.18 1047.05 634.04C1046.36 629.94 1045.57 625.28 1046.6 620.82C1049.02 610.33 1059.71 608.56 1066.79 607.38C1088.76 603.744 1110.93 601.526 1133.18 600.74H1133.75C1137.39 600.746 1140.93 601.967 1143.8 604.209C1146.67 606.451 1148.71 609.587 1149.6 613.12C1155.43 636.802 1158.94 660.997 1160.06 685.36C1160.22 688.69 1160.54 695.64 1155.79 699.88C1152.59 702.74 1148.27 703.2 1145.42 703.51L1070.6 711.51C1069.57 711.641 1068.53 711.718 1067.49 711.74ZM1133.75 608.74H1133.46C1111.57 609.484 1089.75 611.641 1068.14 615.2C1060.83 616.41 1055.57 617.65 1054.44 622.54C1053.77 625.45 1054.38 629.1 1054.98 632.64C1055.18 633.83 1055.38 635.06 1055.54 636.26L1063.54 697.34C1063.74 698.9 1064.22 702.56 1065.76 703.34C1066.65 703.81 1068.47 703.61 1069.76 703.47L1144.58 695.47C1147.1 695.2 1149.28 694.9 1150.47 693.83C1152.15 692.33 1152.23 688.83 1152.08 685.64C1150.97 661.838 1147.55 638.199 1141.86 615.06C1141.41 613.253 1140.36 611.649 1138.89 610.504C1137.42 609.359 1135.61 608.738 1133.75 608.74Z" fill="white"/>
<path d="M1237.17 699.35C1233.97 699.33 1230.87 698.216 1228.39 696.194C1225.91 694.171 1224.19 691.362 1223.52 688.23C1218.76 665.56 1217.63 635.02 1217.61 626.11C1217.61 624.67 1217.42 622.74 1217.22 620.68C1216.55 613.8 1215.73 605.231 1220.08 600.281C1225.73 593.851 1238.28 593.19 1247.44 592.7C1249.44 592.59 1251.25 592.5 1252.68 592.35C1265.81 591.06 1279.13 590.03 1292.27 589.3C1299.18 588.92 1307.68 589.301 1312.04 596.001C1313.49 598.473 1314.4 601.223 1314.71 604.07C1319.12 630.615 1319.99 657.628 1317.28 684.4C1317.32 685.483 1317.13 686.562 1316.74 687.571C1316.35 688.581 1315.75 689.501 1315 690.277C1314.24 691.052 1313.34 691.668 1312.34 692.086C1311.34 692.504 1310.26 692.716 1309.18 692.71C1285.64 695.62 1261.7 697.851 1238.03 699.331L1237.17 699.35ZM1231.35 686.581C1231.65 687.98 1232.43 689.229 1233.56 690.102C1234.7 690.975 1236.1 691.414 1237.53 691.34C1261.04 689.87 1284.82 687.661 1308.2 684.771C1308.4 684.771 1308.86 684.69 1309.2 684.62C1309.27 684.281 1309.32 683.79 1309.34 683.62C1311.98 657.552 1311.14 631.248 1306.84 605.4C1306.68 603.655 1306.18 601.958 1305.37 600.4C1303.24 597.15 1297.5 597.041 1292.74 597.311C1279.74 598.031 1266.51 599.05 1253.49 600.311C1251.87 600.47 1249.94 600.57 1247.89 600.68C1241.02 601.04 1229.54 601.68 1226.11 605.56C1224.04 607.9 1224.74 615.131 1225.2 619.911C1225.42 622.151 1225.62 624.27 1225.63 626.08C1225.63 634.77 1226.75 664.561 1231.37 686.571L1231.35 686.581Z" fill="white"/>
<path d="M758.322 902.6C754.814 902.589 751.438 901.262 748.862 898.88C746.286 896.499 744.698 893.237 744.412 889.74C743.662 880.62 742.962 871.35 742.292 862.38C741.972 858.227 741.655 854.08 741.342 849.94C740.922 844.39 739.262 836.51 737.662 828.89C733.992 811.48 732.882 804.57 735.752 801.02C741.692 793.68 757.482 792.18 774.522 791.19C777.752 791 780.522 790.83 782.522 790.61L822.312 786.08C832.392 784.94 838.162 787.08 839.482 792.55C839.704 793.476 839.842 794.42 839.892 795.37L851.582 878.6C851.785 880.052 851.7 881.53 851.331 882.949C850.962 884.368 850.317 885.7 849.433 886.869C848.549 888.039 847.443 889.022 846.178 889.764C844.913 890.505 843.514 890.99 842.062 891.19L760.002 902.51H759.902C759.378 902.569 758.85 902.599 758.322 902.6ZM742.192 805.79C741.572 808.63 743.922 819.79 745.492 827.23C747.142 835.1 748.852 843.23 749.322 849.32C749.642 853.473 749.955 857.623 750.262 861.77C750.942 870.77 751.642 879.98 752.382 889.08C752.447 889.882 752.673 890.663 753.045 891.376C753.418 892.088 753.931 892.719 754.552 893.23C755.164 893.737 755.871 894.116 756.632 894.344C757.393 894.572 758.192 894.646 758.982 894.56L840.982 883.26C841.809 883.143 842.557 882.705 843.062 882.04C843.313 881.71 843.496 881.333 843.599 880.931C843.702 880.529 843.723 880.11 843.662 879.7L831.962 796.33V796.04C831.938 795.536 831.874 795.034 831.772 794.54C831.442 794.31 829.542 793.3 823.262 794.02L783.462 798.55C781.252 798.8 778.362 798.97 775.012 799.16C765.092 799.74 746.802 800.81 742.192 805.79Z" fill="white"/>
<path d="M925.251 882.371C921.87 882.367 918.608 881.123 916.083 878.874C913.558 876.626 911.946 873.529 911.551 870.171C910.691 863.041 909.351 852.651 907.931 841.651C904.931 818.551 901.551 792.381 901.141 784.541C900.981 781.541 901.001 778.651 902.901 776.651C904.801 774.651 907.001 774.801 908.841 774.801C910.524 774.859 912.206 774.688 913.841 774.291C922.421 772.171 931.501 771.581 940.281 771.001C943.981 770.761 947.471 770.541 950.951 770.201L992.141 766.201C994.431 765.981 999.191 765.521 1002.37 768.851C1004.64 771.231 1004.93 774.391 1005.11 776.281C1006.23 788.361 1008.03 799.341 1009.76 809.961C1012.38 826.031 1014.86 841.221 1014.96 858.901C1014.97 861.963 1013.84 864.918 1011.79 867.19C1009.74 869.461 1006.91 870.884 1003.86 871.181C991.391 872.241 978.731 874.471 966.501 876.631C953.411 878.931 939.871 881.321 926.341 882.331C925.951 882.361 925.601 882.371 925.251 882.371ZM909.081 782.801C909.081 783.151 909.081 783.591 909.081 784.131C909.471 791.651 912.841 817.671 915.811 840.631C917.241 851.631 918.581 862.051 919.441 869.211C919.613 870.704 920.355 872.074 921.512 873.033C922.669 873.993 924.152 874.469 925.651 874.361C938.791 873.361 952.121 871.021 965.021 868.751C977.431 866.561 990.261 864.301 1003.09 863.211C1004.15 863.111 1005.13 862.621 1005.84 861.837C1006.55 861.052 1006.94 860.03 1006.94 858.971C1006.84 841.911 1004.41 826.971 1001.84 811.271C1000.09 800.521 998.271 789.401 997.121 777.041C997.101 776.13 996.911 775.232 996.561 774.391C996.381 774.201 995.661 773.921 992.891 774.181L951.701 778.181C948.101 778.531 944.381 778.771 940.781 779.011C932.351 779.561 923.631 780.121 915.781 782.081C913.589 782.614 911.337 782.856 909.081 782.801Z" fill="white"/>
<path d="M1099.19 859.32C1095.65 859.319 1092.24 858.012 1089.61 855.65C1086.97 853.288 1085.31 850.037 1084.92 846.52L1080.92 810.67C1080.35 805.51 1079.67 801.38 1079.01 797.38C1077.94 791.454 1077.19 785.475 1076.74 779.47C1076.48 777.746 1076.06 776.05 1075.49 774.4C1073.82 768.85 1071.75 761.95 1075.49 756.78C1077.89 753.47 1081.98 751.78 1087.99 751.64C1093.74 751.5 1147.6 747.89 1160.86 746.24C1163.08 745.96 1166.12 745.58 1169.09 746.75C1176.29 749.58 1177.14 758.55 1177.46 761.93C1178.46 772.7 1179.95 782.93 1181.38 792.77C1183.66 808.53 1185.81 823.42 1186.26 840.42C1186.33 843.01 1186.45 847.35 1183.64 850.63C1180.55 854.25 1175.76 854.55 1172.9 854.73L1100.07 859.29C1099.8 859.31 1099.5 859.32 1099.19 859.32ZM1092.86 845.64C1093.04 847.272 1093.84 848.772 1095.09 849.827C1096.35 850.882 1097.96 851.41 1099.6 851.3L1172.44 846.74C1173.93 846.65 1176.7 846.47 1177.6 845.43C1178.5 844.39 1178.34 842.06 1178.3 840.62C1177.87 824.09 1175.75 809.43 1173.5 793.9C1172.06 783.9 1170.57 773.64 1169.5 762.67C1169.03 757.67 1167.94 754.88 1166.17 754.18C1165.1 753.76 1163.38 753.98 1161.86 754.18C1148.45 755.85 1094 759.51 1088.2 759.65C1084.99 759.73 1082.77 760.38 1081.97 761.49C1080.54 763.49 1082.04 768.49 1083.14 772.11C1083.91 774.321 1084.43 776.607 1084.71 778.93C1085.15 784.683 1085.88 790.41 1086.89 796.09C1087.57 800.19 1088.27 804.43 1088.89 809.8L1092.86 845.64Z" fill="white"/>
<path d="M1261.51 848.181C1252.2 848.181 1247.51 846.501 1246.16 842.471C1243.35 833.791 1241.62 815.781 1240.24 801.301C1239.79 796.661 1239.41 792.641 1239.06 789.761C1238.62 786.091 1237.99 782.341 1237.38 778.761C1236.32 773.001 1235.55 767.19 1235.09 761.351C1234.56 752.831 1235.09 744.981 1247.17 742.581C1259.25 740.181 1273.82 739.091 1287.96 738.001C1299.96 737.091 1311.23 736.231 1320.96 734.671C1322.69 734.391 1325.96 733.871 1328.65 735.871C1328.81 735.991 1329.03 736.151 1329.3 736.331C1334.3 739.821 1336.81 742.121 1337.04 744.991C1338.04 756.851 1339.94 768.911 1341.8 780.581C1344.46 797.221 1347.2 814.431 1347.32 831.641C1347.32 839.011 1336.32 840.251 1332.97 840.461C1326.11 840.881 1315.86 842.281 1304.97 843.771C1285.02 846.471 1270.93 848.181 1261.51 848.181ZM1253.58 839.391C1258.86 841.971 1286.97 838.131 1303.92 835.811C1314.92 834.301 1325.33 832.881 1332.48 832.451C1334.83 832.347 1337.15 831.815 1339.31 830.881C1339.12 814.521 1336.47 797.881 1333.9 781.811C1332.06 770.231 1330.15 758.271 1329.13 746.351C1327.76 745.05 1326.27 743.875 1324.69 742.841L1324.04 742.381C1323.43 742.363 1322.83 742.416 1322.23 742.541C1312.17 744.151 1300.17 745.061 1288.57 745.951C1274.67 747.011 1260.29 748.111 1248.73 750.401C1243.26 751.481 1242.57 752.751 1243.08 760.821C1243.52 766.382 1244.25 771.916 1245.27 777.401C1245.89 781.111 1246.54 784.941 1247 788.801C1247.36 791.801 1247.75 795.801 1248.2 800.541C1249.45 813.551 1251.14 831.241 1253.58 839.391Z" fill="white"/>
<path d="M773.782 1053.02C772.287 1053.07 770.825 1052.57 769.672 1051.62C768.475 1050.47 767.761 1048.91 767.672 1047.25L757.672 965.251C757.602 964.641 757.462 963.881 757.312 963.071C756.572 959.011 755.452 952.881 759.802 949.071C763.162 946.071 768.952 945.281 774.052 944.551C775.532 944.341 776.932 944.141 777.922 943.931C781.532 943.141 799.922 939.561 817.832 936.931C852.882 931.931 858.072 934.451 860.372 937.511C868.142 947.851 872.652 1032.78 872.692 1033.64C872.782 1035.43 872.932 1038.42 871.052 1040.94C868.592 1044.24 864.412 1044.47 862.392 1044.58C849.642 1045.28 833.922 1047.04 818.712 1048.74C803.502 1050.44 787.572 1052.22 774.602 1052.93L773.782 1053.02ZM848.242 942.071C833.052 942.071 796.172 948.151 779.542 951.761C778.262 952.041 776.732 952.261 775.102 952.491C771.912 952.951 766.572 953.711 765.012 955.091C764.012 955.931 764.742 959.671 765.102 961.671C765.272 962.601 765.432 963.471 765.542 964.321L775.392 1044.93C787.902 1044.19 803.062 1042.5 817.742 1040.86C833.062 1039.15 848.892 1037.38 861.882 1036.67C863.882 1036.56 864.432 1036.32 864.592 1036.2C864.663 1035.5 864.663 1034.8 864.592 1034.1C862.592 992.611 857.502 948.95 854.072 942.71C852.176 942.182 850.207 941.966 848.242 942.071Z" fill="white"/>
<path d="M808.721 1191.15C805.931 1191.16 803.232 1190.16 801.114 1188.34C798.996 1186.53 797.601 1184.01 797.181 1181.25L785.461 1107.37C785.321 1106.48 785.151 1105.54 784.981 1104.59C783.701 1097.59 781.321 1084.52 794.611 1082.06C803.841 1080.34 813.421 1079.55 822.691 1078.77C827.201 1078.4 831.871 1078.01 836.371 1077.52L877.861 1073.02C880.039 1072.62 882.288 1073.01 884.201 1074.13C885.201 1074.81 887.331 1076.23 888.351 1088C890.281 1110 893.101 1124.31 896.351 1140.9C898.071 1149.59 899.841 1158.58 901.611 1169.37C901.862 1170.89 901.807 1172.45 901.45 1173.95C901.093 1175.46 900.441 1176.87 899.532 1178.12C898.623 1179.37 897.475 1180.43 896.155 1181.23C894.835 1182.03 893.368 1182.56 891.841 1182.79C877.581 1184.97 862.131 1186.23 847.191 1187.45C834.791 1188.45 821.961 1189.45 810.291 1191.05C809.771 1191.12 809.246 1191.15 808.721 1191.15ZM879.201 1080.93H878.721L837.231 1085.42C832.631 1085.92 827.911 1086.32 823.351 1086.7C814.281 1087.45 804.911 1088.23 796.071 1089.87C791.641 1090.7 791.071 1093.17 792.851 1103.1C793.031 1104.1 793.211 1105.1 793.361 1106.1L805.081 1179.98C805.232 1180.94 805.753 1181.81 806.532 1182.39C807.311 1182.97 808.287 1183.23 809.251 1183.1C821.131 1181.52 834.061 1180.47 846.561 1179.45C861.361 1178.25 876.671 1177 890.651 1174.87C891.132 1174.8 891.594 1174.63 892.01 1174.38C892.425 1174.13 892.787 1173.8 893.074 1173.4C893.36 1173.01 893.566 1172.57 893.679 1172.09C893.792 1171.62 893.81 1171.13 893.731 1170.65C891.981 1159.98 890.231 1151.06 888.531 1142.43C885.351 1126.31 882.341 1111.08 880.381 1088.68C880.154 1086.07 879.76 1083.49 879.201 1080.93Z" fill="white"/>
<path d="M1522.07 746.35C1521.48 746.463 1520.86 746.436 1520.28 746.27C1519.26 745.984 1518.4 745.303 1517.88 744.379C1517.36 743.454 1517.23 742.361 1517.51 741.34C1523.35 720.518 1531.87 700.544 1542.86 681.92C1543.13 681.468 1543.48 681.073 1543.9 680.757C1544.32 680.441 1544.8 680.211 1545.31 680.08C1545.82 679.949 1546.35 679.92 1546.87 679.994C1547.39 680.068 1547.89 680.243 1548.34 680.51C1548.79 680.778 1549.19 681.131 1549.51 681.551C1549.82 681.971 1550.05 682.449 1550.18 682.958C1550.31 683.467 1550.34 683.997 1550.27 684.517C1550.19 685.037 1550.02 685.538 1549.75 685.99C1539.12 704.015 1530.89 723.348 1525.25 743.5C1525.04 744.227 1524.64 744.881 1524.07 745.385C1523.51 745.889 1522.82 746.224 1522.07 746.35Z" fill="#1B5EC9"/>
<path d="M1534.05 828.67C1533.31 828.805 1532.55 828.729 1531.85 828.449C1531.15 828.169 1530.54 827.697 1530.1 827.088C1529.66 826.479 1529.39 825.757 1529.34 825.006C1529.29 824.254 1529.45 823.504 1529.81 822.84C1567.4 752.79 1607.18 682.84 1648.05 614.84C1648.55 613.993 1649.35 613.361 1650.29 613.066C1651.23 612.77 1652.25 612.832 1653.15 613.24C1654.04 613.648 1654.76 614.372 1655.15 615.275C1655.55 616.177 1655.6 617.194 1655.29 618.13L1651.64 629.44C1651.34 630.38 1650.7 631.174 1649.85 631.671C1648.99 632.167 1647.99 632.331 1647.02 632.13C1609.02 695.86 1571.96 761.23 1536.86 826.66C1536.57 827.184 1536.17 827.637 1535.68 827.984C1535.2 828.332 1534.64 828.567 1534.05 828.67Z" fill="#1B5EC9"/>
<path d="M1566.34 833.23C1565.58 833.369 1564.79 833.282 1564.07 832.979C1563.36 832.677 1562.74 832.172 1562.31 831.527C1561.88 830.882 1561.64 830.125 1561.63 829.347C1561.62 828.57 1561.84 827.806 1562.25 827.15C1571.5 812.62 1582.39 799.199 1594.7 787.15C1595.47 786.437 1596.48 786.051 1597.52 786.075C1598.57 786.099 1599.56 786.531 1600.29 787.278C1601.02 788.026 1601.43 789.029 1601.43 790.074C1601.43 791.119 1601.02 792.123 1600.29 792.87C1588.42 804.498 1577.92 817.45 1569 831.47C1568.7 831.93 1568.31 832.324 1567.86 832.627C1567.4 832.93 1566.88 833.135 1566.34 833.23Z" fill="#1B5EC9"/>
<path d="M1548.07 895.02C1547.23 895.003 1546.41 894.72 1545.74 894.21C1545.06 893.701 1544.57 892.991 1544.32 892.183C1544.08 891.375 1544.09 890.509 1544.37 889.711C1544.65 888.913 1545.17 888.223 1545.86 887.74C1601.45 850.578 1658.97 816.39 1718.18 785.32C1718.65 785.05 1719.17 784.878 1719.7 784.812C1720.24 784.747 1720.78 784.791 1721.3 784.941C1721.81 785.091 1722.3 785.345 1722.71 785.686C1723.13 786.027 1723.48 786.449 1723.73 786.927C1723.98 787.404 1724.13 787.928 1724.17 788.465C1724.21 789.003 1724.15 789.543 1723.98 790.054C1723.8 790.566 1723.53 791.037 1723.17 791.44C1722.82 791.843 1722.38 792.17 1721.89 792.4C1662.94 823.35 1605.67 857.397 1550.31 894.4C1549.65 894.829 1548.86 895.045 1548.07 895.02Z" fill="#1B5EC9"/>
<path d="M1034.39 1603.51C1033.56 1603.51 1032.75 1603.26 1032.07 1602.78C1031.39 1602.29 1030.88 1601.61 1030.6 1600.83C1030.33 1600.04 1030.31 1599.19 1030.54 1598.39C1030.77 1597.59 1031.25 1596.89 1031.9 1596.37C1065.26 1569.94 1096.56 1538.47 1124.9 1502.84C1125.23 1502.43 1125.64 1502.09 1126.1 1501.83C1126.56 1501.58 1127.06 1501.42 1127.59 1501.36C1128.11 1501.3 1128.64 1501.35 1129.14 1501.49C1129.65 1501.64 1130.12 1501.88 1130.53 1502.21C1130.94 1502.54 1131.29 1502.95 1131.54 1503.41C1131.79 1503.87 1131.95 1504.37 1132.01 1504.9C1132.07 1505.42 1132.03 1505.95 1131.88 1506.45C1131.73 1506.96 1131.49 1507.43 1131.16 1507.84C1103.43 1542.92 1071.8 1574.73 1036.86 1602.64C1036.16 1603.2 1035.29 1603.51 1034.39 1603.51Z" fill="#1B5EC9"/>
<path d="M1041.22 1524.74C1040.42 1524.74 1039.64 1524.5 1038.98 1524.06C1038.32 1523.61 1037.81 1522.98 1037.51 1522.24C1037.21 1521.5 1037.14 1520.69 1037.31 1519.91C1037.47 1519.13 1037.87 1518.41 1038.44 1517.86L1040.1 1516.26C1040.82 1515.57 1041.77 1515.17 1042.77 1515.15C1054.65 1507.99 1066.52 1500.47 1078.09 1492.78C1078.98 1492.22 1080.05 1492.02 1081.07 1492.23C1082.1 1492.45 1083 1493.06 1083.58 1493.93C1084.16 1494.81 1084.37 1495.87 1084.18 1496.9C1083.98 1497.93 1083.38 1498.84 1082.52 1499.44C1069.67 1507.98 1056.46 1516.3 1043.27 1524.17C1042.65 1524.55 1041.94 1524.74 1041.22 1524.74Z" fill="#1B5EC9"/>
<path d="M962.302 1480.99C961.311 1480.99 960.355 1480.62 959.621 1479.95C958.887 1479.29 958.426 1478.37 958.327 1477.39C958.229 1476.4 958.5 1475.41 959.089 1474.62C959.677 1473.82 960.54 1473.27 961.512 1473.07C1007.72 1463.82 1052.77 1449.53 1095.86 1430.44C1096.34 1430.22 1096.86 1430.1 1097.39 1430.09C1097.91 1430.07 1098.44 1430.16 1098.93 1430.35C1099.42 1430.54 1099.87 1430.82 1100.26 1431.18C1100.64 1431.55 1100.94 1431.98 1101.16 1432.46C1101.37 1432.94 1101.49 1433.46 1101.5 1433.99C1101.52 1434.52 1101.42 1435.04 1101.23 1435.53C1101.04 1436.02 1100.76 1436.47 1100.39 1436.85C1100.03 1437.23 1099.59 1437.54 1099.11 1437.75C1055.49 1457.07 1009.89 1471.54 963.112 1480.91C962.846 1480.97 962.574 1481 962.302 1480.99Z" fill="#1B5EC9"/>
<path d="M994.172 1405.58C989.505 1405.58 984.809 1405.55 980.082 1405.5C979.021 1405.49 978.009 1405.05 977.268 1404.29C976.528 1403.53 976.119 1402.51 976.132 1401.45C976.145 1400.39 976.58 1399.38 977.339 1398.64C978.099 1397.9 979.121 1397.49 980.182 1397.5C1026.31 1398.01 1072.43 1395.92 1118.32 1391.25C1118.85 1391.2 1119.38 1391.25 1119.88 1391.4C1120.39 1391.55 1120.86 1391.8 1121.27 1392.14C1121.68 1392.47 1122.02 1392.88 1122.27 1393.35C1122.52 1393.81 1122.67 1394.32 1122.73 1394.85C1122.78 1395.37 1122.73 1395.9 1122.58 1396.41C1122.43 1396.91 1122.18 1397.38 1121.84 1397.79C1121.51 1398.2 1121.1 1398.54 1120.63 1398.79C1120.17 1399.04 1119.66 1399.2 1119.13 1399.25C1077.61 1403.46 1035.91 1405.57 994.172 1405.58Z" fill="#1B5EC9"/>
<path d="M1156 1015.48C1138.29 1024.1 1128.24 1032.7 1121.07 1049.88C1119.2 1054.37 1117.15 1067.35 1119.3 1071.69C1121.52 1076.19 1126.66 1078.06 1131.39 1079.07C1135.88 1080.02 1140.72 1080.53 1144.88 1078.54C1152.42 1074.93 1150.52 1055.36 1153.07 1047.09C1156.66 1035.47 1168.15 1022.91 1187.57 1012.4C1189.86 1011.17 1189.38 1007.22 1186.8 1007.16C1178.18 1006.95 1166.71 1010.26 1156 1015.48Z" fill="white"/>
<path d="M452.382 611.49C451.321 611.54 450.284 611.165 449.499 610.45C448.714 609.734 448.246 608.736 448.197 607.675C448.148 606.615 448.522 605.578 449.237 604.793C449.953 604.008 450.951 603.54 452.012 603.49L481.182 600.77C481.707 600.721 482.237 600.776 482.741 600.931C483.245 601.087 483.714 601.34 484.12 601.677C484.526 602.013 484.862 602.427 485.109 602.893C485.355 603.36 485.507 603.87 485.557 604.395C485.606 604.921 485.551 605.451 485.396 605.955C485.24 606.459 484.987 606.927 484.65 607.334C484.314 607.74 483.9 608.076 483.434 608.322C482.967 608.569 482.457 608.721 481.932 608.77L452.762 611.5L452.382 611.49Z" fill="black"/>
<path d="M518.642 603.641C518.117 603.671 517.591 603.597 517.094 603.424C516.597 603.251 516.139 602.982 515.746 602.632C515.353 602.282 515.033 601.858 514.804 601.384C514.575 600.91 514.442 600.396 514.412 599.871C514.382 599.345 514.455 598.819 514.628 598.322C514.801 597.826 515.071 597.368 515.421 596.975C515.771 596.582 516.195 596.262 516.669 596.033C517.142 595.804 517.657 595.671 518.182 595.641C538.012 593.321 549.032 592.441 557.392 592.431C558.453 592.431 559.47 592.852 560.22 593.602C560.97 594.352 561.392 595.37 561.392 596.431C561.392 597.492 560.97 598.509 560.22 599.259C559.47 600.009 558.453 600.431 557.392 600.431H557.252C549.252 600.431 538.512 601.311 519.132 603.591L518.642 603.641Z" fill="black"/>
<path d="M611.592 596.621C610.531 596.68 609.49 596.316 608.697 595.608C607.905 594.9 607.426 593.907 607.367 592.846C607.307 591.785 607.671 590.744 608.379 589.951C609.087 589.159 610.081 588.68 611.142 588.621L672.232 581.621C672.754 581.561 673.282 581.605 673.787 581.749C674.293 581.894 674.764 582.136 675.176 582.463C675.587 582.79 675.93 583.195 676.185 583.654C676.44 584.114 676.602 584.619 676.662 585.141C676.721 585.663 676.678 586.191 676.533 586.696C676.389 587.202 676.146 587.673 675.819 588.085C675.492 588.496 675.088 588.839 674.628 589.094C674.169 589.349 673.664 589.511 673.142 589.571L612.052 596.571L611.592 596.621Z" fill="black"/>
<path d="M715.482 585.141C714.421 585.182 713.388 584.8 712.608 584.079C711.829 583.358 711.368 582.357 711.327 581.296C711.286 580.235 711.668 579.201 712.389 578.422C713.11 577.643 714.111 577.182 715.172 577.141L749.172 574.401C750.233 574.315 751.285 574.653 752.096 575.343C752.907 576.032 753.411 577.015 753.497 578.076C753.583 579.137 753.245 580.188 752.555 580.999C751.866 581.811 750.883 582.315 749.822 582.401L715.822 585.141H715.482Z" fill="black"/>
<path d="M801.862 575.53C800.801 575.576 799.766 575.197 798.984 574.479C798.202 573.761 797.737 572.761 797.692 571.7C797.647 570.64 798.025 569.604 798.743 568.822C799.462 568.04 800.461 567.576 801.522 567.53L822.432 565.74C823.493 565.649 824.547 565.983 825.362 566.668C826.176 567.354 826.686 568.335 826.777 569.395C826.869 570.456 826.535 571.51 825.849 572.325C825.164 573.14 824.183 573.649 823.122 573.74L802.182 575.55L801.862 575.53Z" fill="black"/>
<path d="M862.421 568.6C861.36 568.668 860.316 568.311 859.518 567.609C858.72 566.906 858.234 565.916 858.166 564.855C858.099 563.794 858.455 562.75 859.158 561.952C859.86 561.154 860.85 560.668 861.911 560.6C892.081 556.68 926.491 552.6 952.991 551.85C954.052 551.822 955.081 552.217 955.851 552.947C956.62 553.678 957.068 554.684 957.096 555.745C957.124 556.806 956.729 557.834 955.999 558.604C955.269 559.374 954.262 559.822 953.201 559.85C927.071 560.55 892.911 564.64 862.941 568.54C862.769 568.57 862.596 568.59 862.421 568.6Z" fill="black"/>
<path d="M996.642 558.051C995.581 558.105 994.542 557.736 993.753 557.024C992.965 556.312 992.491 555.317 992.437 554.256C992.383 553.195 992.752 552.156 993.464 551.367C994.175 550.579 995.171 550.105 996.232 550.051C1002.23 549.421 1010.72 549.411 1018.91 549.401C1026.91 549.401 1035.15 549.401 1040.76 548.801C1041.82 548.691 1042.88 549.007 1043.71 549.679C1044.54 550.351 1045.07 551.325 1045.18 552.386C1045.29 553.447 1044.97 554.508 1044.3 555.336C1043.63 556.164 1042.65 556.691 1041.59 556.801C1035.59 557.431 1027.11 557.441 1018.92 557.441C1010.92 557.441 1002.68 557.441 997.072 558.051H996.642Z" fill="black"/>
<path d="M1108.93 556.381C1107.87 556.426 1106.84 556.048 1106.05 555.329C1105.27 554.611 1104.81 553.612 1104.76 552.551C1104.72 551.49 1105.09 550.455 1105.81 549.673C1106.53 548.891 1107.53 548.426 1108.59 548.381L1129.53 546.581C1130.06 546.536 1130.59 546.595 1131.09 546.755C1131.59 546.915 1132.06 547.172 1132.46 547.512C1132.86 547.852 1133.19 548.268 1133.44 548.736C1133.68 549.204 1133.83 549.716 1133.87 550.241C1133.92 550.766 1133.86 551.295 1133.7 551.797C1133.54 552.3 1133.28 552.766 1132.94 553.169C1132.6 553.572 1132.18 553.904 1131.72 554.146C1131.25 554.388 1130.74 554.536 1130.21 554.581L1109.27 556.371L1108.93 556.381Z" fill="black"/>
<path d="M1163.06 554.13C1162 554.159 1160.97 553.766 1160.2 553.036C1159.43 552.307 1158.98 551.301 1158.95 550.24C1158.92 549.179 1159.32 548.15 1160.05 547.38C1160.77 546.609 1161.78 546.159 1162.84 546.13L1220.46 543.03C1220.99 543.002 1221.51 543.077 1222.01 543.252C1222.5 543.427 1222.96 543.698 1223.35 544.05C1223.74 544.401 1224.06 544.826 1224.29 545.301C1224.52 545.775 1224.65 546.29 1224.68 546.815C1224.7 547.34 1224.63 547.866 1224.45 548.362C1224.28 548.858 1224.01 549.315 1223.66 549.707C1223.31 550.098 1222.88 550.416 1222.41 550.643C1221.93 550.871 1221.42 551.002 1220.89 551.03L1163.27 554.14L1163.06 554.13Z" fill="black"/>
<path d="M1314.86 541.05C1313.8 541.063 1312.78 540.655 1312.02 539.914C1311.26 539.173 1310.83 538.161 1310.81 537.1C1310.8 536.039 1311.21 535.016 1311.95 534.257C1312.69 533.497 1313.7 533.063 1314.76 533.05C1344.27 532.27 1374.1 530.05 1403.39 526.38C1404.44 526.247 1405.51 526.538 1406.35 527.189C1407.18 527.84 1407.73 528.797 1407.86 529.85C1407.99 530.903 1407.7 531.965 1407.05 532.804C1406.4 533.642 1405.44 534.187 1404.39 534.32C1374.84 538 1344.75 540.26 1314.98 541.05H1314.86Z" fill="black"/>
<path d="M1348.64 956.18C1347.83 956.18 1347.04 955.934 1346.37 955.473C1345.7 955.012 1345.19 954.359 1344.9 953.6C1339.36 939.01 1328.61 900.53 1327.9 884.09C1327.88 883.565 1327.96 883.04 1328.14 882.546C1328.32 882.052 1328.59 881.597 1328.95 881.209C1329.3 880.821 1329.73 880.507 1330.2 880.284C1330.68 880.061 1331.2 879.934 1331.72 879.91C1332.25 879.887 1332.77 879.967 1333.27 880.146C1333.76 880.325 1334.21 880.6 1334.6 880.955C1334.99 881.309 1335.31 881.737 1335.53 882.213C1335.75 882.69 1335.88 883.205 1335.9 883.73C1336.6 899.16 1347.18 936.95 1352.42 950.73C1352.61 951.221 1352.7 951.745 1352.68 952.27C1352.66 952.795 1352.55 953.312 1352.33 953.791C1352.11 954.27 1351.81 954.702 1351.42 955.062C1351.04 955.423 1350.59 955.704 1350.1 955.89C1349.64 956.074 1349.14 956.172 1348.64 956.18Z" fill="black"/>
<path d="M1376.1 933.27C1375.2 933.271 1374.33 932.969 1373.63 932.414C1372.92 931.859 1372.42 931.083 1372.21 930.21L1363.47 894.32C1363.24 893.297 1363.42 892.223 1363.97 891.33C1364.52 890.437 1365.4 889.797 1366.42 889.548C1367.44 889.299 1368.52 889.46 1369.42 889.997C1370.32 890.535 1370.98 891.405 1371.24 892.42L1379.99 928.32C1380.24 929.35 1380.07 930.438 1379.52 931.344C1378.97 932.249 1378.08 932.899 1377.05 933.15C1376.74 933.229 1376.42 933.269 1376.1 933.27Z" fill="black"/>
<path d="M1409.29 931.35C1408.23 931.35 1407.21 930.929 1406.46 930.179C1405.71 929.429 1405.29 928.411 1405.29 927.35C1405.23 911.35 1404.43 895.08 1402.92 879.05L1402.86 878.63L1402.25 872.29C1402.14 871.229 1402.46 870.169 1403.13 869.342C1403.81 868.515 1404.78 867.989 1405.84 867.88C1406.9 867.772 1407.96 868.089 1408.79 868.762C1409.62 869.435 1410.14 870.409 1410.25 871.47C1412.23 890.023 1413.25 908.663 1413.33 927.32C1413.33 928.381 1412.91 929.399 1412.16 930.149C1411.41 930.899 1410.39 931.32 1409.33 931.32L1409.29 931.35Z" fill="black"/>
<path d="M1440.01 931.35C1438.95 931.35 1437.93 930.929 1437.18 930.179C1436.43 929.429 1436.01 928.411 1436.01 927.35V896.86C1436.01 895.799 1436.43 894.782 1437.18 894.032C1437.93 893.282 1438.95 892.86 1440.01 892.86C1441.07 892.86 1442.09 893.282 1442.84 894.032C1443.59 894.782 1444.01 895.799 1444.01 896.86V927.35C1444.01 928.411 1443.59 929.429 1442.84 930.179C1442.09 930.929 1441.07 931.35 1440.01 931.35Z" fill="black"/>
<path d="M1461.54 942.15C1461.15 942.152 1460.76 942.095 1460.38 941.98C1459.88 941.828 1459.41 941.578 1459 941.244C1458.59 940.911 1458.26 940.5 1458.01 940.035C1457.76 939.57 1457.61 939.061 1457.56 938.537C1457.5 938.013 1457.56 937.484 1457.71 936.98C1467.38 904.98 1473.14 853.38 1473.76 847.61C1473.8 847.077 1473.95 846.557 1474.2 846.081C1474.44 845.606 1474.78 845.185 1475.2 844.843C1475.61 844.501 1476.08 844.245 1476.6 844.091C1477.11 843.936 1477.65 843.887 1478.18 843.944C1478.71 844.002 1479.23 844.166 1479.7 844.426C1480.16 844.686 1480.57 845.038 1480.9 845.46C1481.23 845.882 1481.47 846.366 1481.61 846.883C1481.75 847.4 1481.79 847.94 1481.71 848.47C1481.08 854.31 1475.25 906.56 1465.37 939.29C1465.13 940.116 1464.62 940.84 1463.93 941.355C1463.24 941.871 1462.4 942.15 1461.54 942.15Z" fill="black"/>
<path d="M1651.79 1054.42C1651.59 1054.44 1651.38 1054.44 1651.17 1054.42C1650.65 1054.34 1650.15 1054.16 1649.7 1053.88C1649.26 1053.61 1648.86 1053.25 1648.55 1052.83C1648.24 1052.4 1648.02 1051.92 1647.9 1051.41C1647.77 1050.9 1647.75 1050.37 1647.83 1049.85C1650.11 1035.33 1644.09 1019.71 1632.83 1010.97C1632.4 1010.66 1632.03 1010.26 1631.75 1009.8C1631.48 1009.34 1631.29 1008.83 1631.22 1008.29C1631.14 1007.76 1631.17 1007.22 1631.31 1006.7C1631.45 1006.18 1631.69 1005.7 1632.02 1005.27C1632.35 1004.85 1632.76 1004.5 1633.23 1004.24C1633.7 1003.97 1634.22 1003.81 1634.75 1003.75C1635.28 1003.7 1635.82 1003.75 1636.34 1003.9C1636.85 1004.06 1637.33 1004.32 1637.74 1004.66C1651.21 1015.12 1658.44 1033.78 1655.74 1051.09C1655.58 1052.02 1655.1 1052.87 1654.38 1053.48C1653.65 1054.09 1652.74 1054.42 1651.79 1054.42Z" fill="black"/>
<path d="M1655.56 1131.39H1655.2C1654.68 1131.34 1654.17 1131.2 1653.7 1130.95C1653.24 1130.71 1652.83 1130.38 1652.49 1129.97C1652.15 1129.57 1651.9 1129.1 1651.74 1128.6C1651.58 1128.1 1651.53 1127.57 1651.57 1127.05L1653.36 1106.91C1653.41 1106.39 1653.56 1105.87 1653.8 1105.41C1654.05 1104.94 1654.38 1104.52 1654.79 1104.19C1655.19 1103.85 1655.66 1103.59 1656.16 1103.43C1656.66 1103.28 1657.19 1103.22 1657.72 1103.27C1658.24 1103.31 1658.75 1103.46 1659.22 1103.71C1659.69 1103.95 1660.1 1104.28 1660.44 1104.69C1660.78 1105.09 1661.04 1105.56 1661.19 1106.06C1661.35 1106.57 1661.41 1107.1 1661.36 1107.62L1659.54 1127.74C1659.46 1128.74 1659 1129.66 1658.26 1130.34C1657.52 1131.01 1656.56 1131.39 1655.56 1131.39Z" fill="black"/>
<path d="M362.292 952.85C361.713 952.857 361.14 952.737 360.611 952.5C360.083 952.264 359.613 951.915 359.232 951.478C358.852 951.042 358.571 950.528 358.409 949.973C358.246 949.417 358.206 948.833 358.292 948.26C359.072 943.08 361.132 929 361.292 926.05C361.346 924.989 361.82 923.994 362.608 923.282C363.397 922.57 364.436 922.201 365.497 922.255C366.558 922.31 367.554 922.783 368.265 923.572C368.977 924.36 369.346 925.399 369.292 926.46C369.092 930.33 366.502 947.46 366.212 949.46C366.067 950.399 365.593 951.255 364.875 951.876C364.157 952.497 363.241 952.842 362.292 952.85Z" fill="black"/>
<path d="M327.862 1093.54C327.469 1093.54 327.078 1093.48 326.702 1093.37C326.199 1093.22 325.731 1092.97 325.324 1092.63C324.918 1092.3 324.582 1091.89 324.335 1091.42C324.088 1090.96 323.935 1090.45 323.884 1089.93C323.834 1089.4 323.888 1088.87 324.042 1088.37C331.762 1063.03 336.732 1040.04 341.122 1019.74C343.672 1007.96 346.072 996.84 348.662 987C348.959 986.009 349.628 985.172 350.529 984.663C351.43 984.155 352.493 984.016 353.495 984.275C354.496 984.533 355.359 985.17 355.901 986.051C356.443 986.933 356.623 987.99 356.402 989C353.862 998.74 351.462 1009.74 348.942 1021.44C344.522 1041.88 339.512 1065.04 331.702 1090.71C331.451 1091.53 330.942 1092.25 330.25 1092.76C329.559 1093.27 328.721 1093.54 327.862 1093.54Z" fill="black"/>
<path d="M357.522 1223.51C356.613 1223.51 355.73 1223.21 355.018 1222.64C354.306 1222.08 353.808 1221.29 353.606 1220.4C353.403 1219.52 353.508 1218.59 353.904 1217.77C354.299 1216.95 354.962 1216.29 355.782 1215.9C360.558 1213.63 365.978 1213.1 371.102 1214.41C372.093 1214.71 372.931 1215.38 373.439 1216.28C373.947 1217.18 374.087 1218.24 373.828 1219.24C373.569 1220.24 372.932 1221.11 372.051 1221.65C371.17 1222.19 370.113 1222.37 369.102 1222.15C365.809 1221.32 362.331 1221.68 359.272 1223.15C358.723 1223.4 358.125 1223.52 357.522 1223.51Z" fill="black"/>
</svg>
